<?xml version="1.0" encoding="utf-8"?>
<!-- Generator: Adobe Illustrator 19.1.0, SVG Export Plug-In . SVG Version: 6.00 Build 0)  -->
<svg version="1.1" id="Lager_1" xmlns="http://www.w3.org/2000/svg" xmlns:xlink="http://www.w3.org/1999/xlink" x="0px" y="0px"
	 viewBox="-20 337.7 94 94.1" style="enable-background:new -20 337.7 94 94.1;" xml:space="preserve">
<style type="text/css">
	.st0{fill:#FFFFFF;}
</style>
<path class="st0" d="M-20,412.2v-74.5H4l0,0l4.5,0.2l2,0.5l1.7,0.3l1.8,0.8l1.5,0.8l1.5,0.6l1.2,1l0,0l1,1l1,1.2l0.8,1.6l0.5,1.2
	l0.5,1.8l0.5,1.8l0.2,2v2v4.2l0,0l-0.2,2.8l-0.3,2.2l-0.8,2.2l-1,1.8l0,0l-1.2,1.8l-1.4,1.2l-2,1.2l-2.2,1l0,0l2.2,0.8l2,1.2
	l1.5,1.2l1.2,1.5l0,0l1,1.8l0.8,2.2l0.2,2.5l0.2,2.8v17.2l0,0v2.8l0.5,2l0,0l0.5,1.8l0.5,1.5h-17l0,0l-0.4-1.5l-0.2-1.8l0,0
	l-0.4-2.2v-3.2v-14.3l0,0L6,386.5l-0.2-2.2L5,382.5l-0.8-1l0,0L3,380.7l-1.5-0.8l-2.3-0.2l-2.8-0.2v32.8L-20,412.2L-20,412.2z
	 M-3.5,367.7L-3.5,367.7l2.8-0.2l2-0.2l1.7-0.6l1.2-0.5l0,0l0.8-1l0.8-1l0.2-1.5l0.2-1.5V357l0,0L6,355.2l-0.2-1.5l-0.8-1l-0.8-1
	l0,0l-1-0.5l-1.7-0.5l-1.8-0.2h-2.5h-0.8L-3.5,367.7L-3.5,367.7z"/>
<path class="st0" d="M31,412.2v-74.5h21.8l0,0l4.5,0.2l4,0.8l1.8,0.5l1.8,0.8l1.5,0.8l1.2,1l0,0l1,1l1,1l1,1.2l0.8,1.2l0.5,1.5
	l0.2,1.8l0.2,1.8l0.2,1.8v5.6l0,0l-0.2,2.5l-0.5,2.5l-0.5,2l-1,1.8l0,0l-1,1.5l-1.5,1.5l-2,1.2l-2,1l0,0l2.5,1l2,1.2l1.8,1.2
	l1.5,1.8l0,0l1,1.8l0.8,2l0.5,2.5l0.1,2.5v6.5l0,0l-0.2,2.2l-0.2,2.2l-0.2,2l-0.8,2l-0.8,1.5l-0.8,1.8l-1.2,1.2l-1.2,1.2l0,0l-1.2,1
	l-1.8,1l-1.8,0.8l-2,0.8l-2,0.5l-2.5,0.2l-2.5,0.2L52,412H31V412.2z M47.5,367.5L47.5,367.5l2.2-0.2l2-0.2l1.5-0.5l1.2-0.5l0,0
	l0.8-1l0.5-1l0.5-1.5v-1.9v-4.5l0,0v-1.5l-0.5-1.2l-0.5-1l-0.8-0.8l0,0l-1.2-0.5l-1.5-0.5l-2-0.2h-2.2V367.5L47.5,367.5z
	 M47.5,399.7L47.5,399.7l2.8-0.2l2-0.2l1.7-0.6l1.2-0.8l0,0l0.8-1l0.8-1.2l0.2-1.8l0.2-2v-5l0,0l-0.2-2l-0.2-1.8l-0.8-1.2l-1-1l0,0
	l-1.2-0.8l-1.5-0.5l-2.2-0.5h-2.5L47.5,399.7L47.5,399.7z"/>
<polygon class="st0" points="-7,417.7 -7,431.8 -20,431.8 -20,417.7 "/>
<polygon class="st0" points="9.2,417.7 9.2,431.8 -3.8,431.8 -3.8,417.7 "/>
<polygon class="st0" points="25.4,417.7 25.4,431.8 12.2,431.8 12.2,417.7 "/>
<polygon class="st0" points="41.7,417.7 41.7,431.8 28.5,431.8 28.5,417.7 "/>
<polygon class="st0" points="57.7,417.7 57.7,431.8 44.8,431.8 44.8,417.7 "/>
<polygon class="st0" points="74,417.7 74,431.8 61,431.8 61,417.7 "/>
</svg>
