<?xml version="1.0" encoding="utf-8"?>
<!-- Generator: Adobe Illustrator 19.1.0, SVG Export Plug-In . SVG Version: 6.00 Build 0)  -->
<svg version="1.1" id="Lager_1" xmlns="http://www.w3.org/2000/svg" xmlns:xlink="http://www.w3.org/1999/xlink" x="0px" y="0px"
	 viewBox="-20 337.7 554 166.2" style="enable-background:new -20 337.7 554 166.2;" xml:space="preserve">
<style type="text/css">
	.st0{fill:#FFFFFF;}
</style>
<g>
	<path class="st0" d="M-20,412.2v-74.5H4l0,0l4.5,0.2l2,0.5l1.7,0.3l1.8,0.8l1.5,0.8l1.5,0.6l1.2,1l0,0l1,1l1,1.2l0.8,1.6l0.5,1.2
		l0.5,1.8l0.5,1.8l0.2,2v2v4.2l0,0l-0.2,2.8l-0.3,2.2l-0.8,2.2l-1,1.8l0,0l-1.2,1.8l-1.4,1.2l-2,1.2l-2.2,1l0,0l2.2,0.8l2,1.2
		l1.5,1.2l1.2,1.5l0,0l1,1.8l0.8,2.2l0.2,2.5l0.2,2.8v17.2l0,0v2.8l0.5,2l0,0l0.5,1.8l0.5,1.5h-17l0,0l-0.4-1.5l-0.2-1.8l0,0
		l-0.4-2.2v-3.2v-14.3l0,0L6,386.5l-0.2-2.2L5,382.5l-0.8-1l0,0L3,380.7l-1.5-0.8l-2.3-0.2l-2.8-0.2v32.8L-20,412.2L-20,412.2z
		 M-3.5,367.7L-3.5,367.7l2.8-0.2l2-0.2l1.7-0.6l1.2-0.5l0,0l0.8-1l0.8-1l0.2-1.5l0.2-1.5V357l0,0L6,355.2l-0.2-1.5l-0.8-1l-0.8-1
		l0,0l-1-0.5l-1.7-0.5l-1.8-0.2h-2.5h-0.8L-3.5,367.7L-3.5,367.7z"/>
	<path class="st0" d="M47.5,396.9L47.5,396.9l0.2,2.2l0.2,0.8l0.2,0.8l0,0l0.5,0.5l0.8,0.2l0.8,0.2H51l0,0h1l0.8-0.2l0.5-0.2
		l0.5-0.5l0,0l0.2-0.8l0.2-0.8l0.2-2.2v-7h16v4.8l0,0v2.2l-0.2,2l-0.5,2l-0.5,1.8l-0.8,1.8l-0.8,1.5l-1,1.5l-1,1.2l0,0l-1.5,1
		l-1.1,1l-1.8,0.8l-1.8,0.5l-1.8,0.5l-2.2,0.5l-2,0.2H51l0,0h-2.2l-2.2-0.2l-2-0.2l-2-0.8l-1.8-0.5l-1.6-0.8l-1.5-1l-1.2-1l0,0
		l-1.2-1.2l-1-1.5l-0.8-1.5l-0.8-1.5l-0.5-2l-0.2-2l-0.2-2v-2.3v-24.8l0,0v-2.2l0.2-2l0.2-2l0.5-1.8l0.8-1.8l0.8-1.5l1-1.2l1.2-1.2
		l0,0l1.2-1.2l1.5-0.8l1.5-1l1.8-0.5l2-0.5l2-0.5h2.2l2.2-0.2l0,0l2.5,0.2h2l2.2,0.5l1.8,0.5l1.8,0.5l1.8,1l1.2,0.8l1.5,1.2l0,0
		l1,1.2l1,1.2l0.8,1.5l0.8,1.8l0.5,1.8l0.5,2l0.2,2v2.2v15h-23V396.9L47.5,396.9z M47.5,367.9v6.2h7v-6.2l0,0l-0.3-2.2l-0.2-1
		l-0.2-0.5l0,0l-0.6-0.5l-0.8-0.5l-0.4-0.3h-1l0,0h-0.8l-0.8,0.2l-0.6,0.6l-0.5,0.5l0,0l-0.3,0.5l-0.2,1L47.5,367.9L47.5,367.9
		L47.5,367.9z"/>
	<polygon class="st0" points="77.5,412.2 77.5,337.7 93.2,337.7 93.2,378.7 102,352.7 118.2,352.7 108.2,378.2 118.5,412.2 
		102,412.2 93.2,379.7 93.2,412.2 	"/>
	<polygon class="st0" points="121.5,412.2 121.5,337.7 137.2,337.7 137.2,412.2 	"/>
	<path class="st0" d="M167.8,407.9L167.8,407.9l-2.8,2.2l-1.5,1l-1.5,0.8l0,0l-1.2,0.5l-1.5,0.5l-1.5,0.2H156l0,0l-2.5-0.2l-2.5-0.8
		l-2-1.2l-1.8-1.5l0,0l-1.5-2.2l-1-2.5l-0.5-2.8l-0.2-3v-4.8l0,0v-2.8l0.5-2.8l1-2.2l1-2l0,0l1.8-2l1.7-1.6l2.2-1.5l2.8-1.5l0,0
		l3-1.2l0,0l4-2l1.5-1.2l1.2-1l1-1l0.8-1l0.5-1v-1.2v-2l0,0l-0.2-1.5l-0.8-1.2l0,0l-0.5-0.5l-0.8-0.2l-1.2-0.2l0,0h-1l-0.8,0.2
		l-0.5,0.5l-0.5,0.8l0,0l-0.5,0.8l-0.5,1l-0.2,2.5v3.5H145v-3.5l0,0v-2l0.2-1.8l0.5-1.8l0.5-1.5l0.8-1.5l0.8-1.2l1-1.2l1.2-1.6l0,0
		l1.2-1l1.5-0.8l1.5-0.8l1.5-0.5l2-0.5l1.8-0.5l4.2-0.2l0,0l4.8,0.2l2,0.5l1.8,0.2l1.8,0.8l1.5,0.8l1.4,0.8l1.2,1l0,0l1,1l0.8,1.2
		l0.8,1.5l0.8,1.8l0.5,1.8l0.2,1.8l0.2,4.5v43H168L167.8,407.9L167.8,407.9z M167,382.5L167,382.5l-3.8,2.2l-1.2,1l-1,1l0,0l-0.5,1
		l-0.5,1.2l-0.2,1.5v1.5v6l0,0l0.2,2.8v1l0.2,0.8l0,0l0.5,0.5l0.5,0.2l0.5,0.2h0.8l0,0h1l1-0.5l0.8-0.5l0.5-1l0,0l0.8-1l0.2-1.2
		l0.2-1.5v-1.8V382.5L167,382.5z"/>
	<polygon class="st0" points="190.5,412.2 190.5,352.7 205.2,352.7 205.2,359.7 205.2,359.7 206.5,357.7 207.8,356.2 209.2,354.7 
		210.8,353.5 210.8,353.5 212.2,352.7 214.2,351.9 216,351.7 218,351.5 218,351.5 220,351.7 222,351.9 223.5,352.7 225,353.7 
		225,353.7 226.2,354.9 227.2,356.2 228,357.9 228.8,359.7 228.8,359.7 229.8,357.7 231,356.2 232.5,354.7 234,353.7 234,353.7 
		235.8,352.7 237.5,351.9 239.5,351.7 241.5,351.5 241.5,351.5 244,351.7 246.5,352.5 248.2,353.5 250,355.2 250,355.2 251.2,357.2 
		252,359.7 252.5,362.7 252.8,365.9 252.8,412.2 237,412.2 237,370.7 237,370.7 236.8,368.7 236.5,367.9 236.2,367.2 236.2,367.2 
		235.8,366.7 235,366.5 234.2,366.2 233.5,366.2 233.5,366.2 232.5,366.2 231.8,366.5 231,366.9 230.5,367.7 230.5,367.7 230,368.7 
		229.8,369.9 229.5,373.2 229.5,412.2 213.8,412.2 213.8,370.7 213.8,370.7 213.5,368.7 213.2,367.9 213,367.2 213,367.2 
		212.5,366.7 211.8,366.5 211,366.2 210.2,366.2 210.2,366.2 209.2,366.2 208.2,366.5 207.8,366.9 207,367.7 207,367.7 206.8,368.7 
		206.5,369.9 206.2,373.2 206.2,412.2 	"/>
	<path class="st0" d="M261,412.2v-74.5h21.8l0,0l4.5,0.2l4,0.8l1.8,0.5l1.8,0.8l1.5,0.8l1.2,1l0,0l1,1l1,1l1,1.2l0.8,1.2l0.5,1.5
		l0.2,1.8l0.2,1.8l0.2,1.8v5.6l0,0l-0.2,2.5l-0.5,2.5l-0.5,2l-1,1.8l0,0l-1,1.5l-1.5,1.5l-2,1.2l-2,1l0,0l2.5,1l2,1.2l1.8,1.2
		l1.5,1.8l0,0l1,1.8l0.8,2l0.5,2.5l0.1,2.5v6.5l0,0l-0.2,2.2l-0.2,2.2l-0.2,2l-0.8,2l-0.8,1.5l-0.8,1.8l-1.2,1.2l-1.2,1.2l0,0
		l-1.2,1l-1.8,1l-1.8,0.8l-2,0.8l-2,0.5l-2.5,0.2l-2.5,0.2L282,412h-21V412.2z M277.5,367.5L277.5,367.5l2.2-0.2l2-0.2l1.5-0.5
		l1.2-0.5l0,0l0.8-1l0.5-1l0.5-1.5v-1.9v-4.5l0,0v-1.5l-0.5-1.2l-0.5-1l-0.8-0.8l0,0l-1.2-0.5l-1.5-0.5l-2-0.2h-2.2V367.5
		L277.5,367.5z M277.5,399.7L277.5,399.7l2.8-0.2l2-0.2l1.7-0.6l1.2-0.8l0,0l0.8-1l0.8-1.2l0.2-1.8l0.2-2v-5l0,0l-0.2-2l-0.2-1.8
		l-0.8-1.2l-1-1l0,0l-1.2-0.8l-1.5-0.5l-2.2-0.5h-2.5L277.5,399.7L277.5,399.7z"/>
	<polygon class="st0" points="349,352.7 349,412.2 334.2,412.2 334.2,404.9 334.2,404.9 333,406.9 331.8,408.5 330.5,409.9 
		329,411.2 329,411.2 327.2,411.9 325.5,412.7 323.8,413.2 321.8,413.2 321.8,413.2 319.2,412.9 316.8,412.2 315,411.2 313.2,409.5 
		313.2,409.5 312,407.5 311.2,404.9 310.5,401.9 310.5,398.5 310.5,352.7 326.2,352.7 326.2,393.9 326.2,393.9 326.5,395.9 
		326.8,396.7 327,397.2 327,397.2 327.5,397.7 328,398.2 328.8,398.5 329.5,398.5 329.5,398.5 330.5,398.5 331.2,397.9 332,397.7 
		332.5,396.9 332.5,396.9 332.8,395.9 333.2,394.7 333.2,391.5 333.2,352.7 	"/>
	<polygon class="st0" points="377.2,400.9 377.2,412.7 377.2,412.7 374.2,412.9 374.2,412.9 371,413.2 371,413.2 367.5,412.9 
		364.5,412.5 363.2,411.9 362.2,411.5 361.2,410.7 360.5,409.9 360.5,409.9 359.8,408.9 359.2,407.9 358.8,406.5 358.2,404.7 
		357.8,400.7 357.5,395.7 357.5,364.9 353.8,364.9 353.8,353.7 357.5,353.7 357.5,341.2 373,341.2 373,353.7 377.2,353.7 
		377.2,364.9 372.8,364.9 372.8,397.7 372.8,397.7 373,399.2 373.2,399.7 373.8,400.2 373.8,400.2 375,400.7 376.8,400.9 	"/>
	<path class="st0" d="M382.5,349.2v-11.5h15.8v11.5H382.5L382.5,349.2z M382.5,412.2v-59.5h15.8v59.5H382.5L382.5,412.2z"/>
	<polygon class="st0" points="406.5,412.2 406.5,337.7 422,337.7 422,378.7 430.8,352.7 447,352.7 437.2,378.2 447.2,412.2 
		431,412.2 422,379.7 422,412.2 	"/>
	<path class="st0" d="M465.2,396.9L465.2,396.9l0.2,2.2l0.2,0.8l0.4,0.8l0,0l0.5,0.5l0.8,0.2l0.7,0.3h0.8l0,0h1l0.8-0.2l0.5-0.2
		l0.5-0.5l0,0l0.2-0.8l0.5-0.8V397v-7h16v4.7l0,0v2.2l-0.2,2l-0.5,2l-0.6,1.8l-0.5,1.8l-1,1.5l-1,1.5l-1,1.2l0,0l-1.2,1l-1.5,1
		l-1.8,0.8l-1.8,0.5l-1.8,0.5l-2,0.5l-2.2,0.2h-2.5l0,0h-2.2l-2.2-0.2l-2-0.2l-2-0.8l-1.8-0.5l-1.5-0.8l-1.5-1l-1.2-1l0,0l-1.2-1.2
		l-1-1.5l-0.8-1.5l-0.8-1.5l-0.5-2l-0.2-2l-0.2-2v-2.3v-24.8l0,0v-2.2l0.2-2l0.2-2l0.5-1.8l0.8-1.8l0.7-1.4l1-1.2l1.2-1.2l0,0
		l1.2-1.2l1.5-0.8l1.5-1l1.8-0.5l2-0.5l2-0.5h2.2l2.2-0.2l0,0l2.5,0.2h2.2l2,0.5l1.8,0.5l1.8,0.5l1.8,1l1.5,0.8l1.2,1.2l0,0l1,1.2
		l1,1.2l1,1.5l0.5,1.8l0.5,1.8l0.5,2l0.2,2v2.2v15h-23L465.2,396.9L465.2,396.9z M465.2,367.9v6.2h7v-6.2l0,0v-2.2l-0.5-1l-0.2-0.5
		l0,0l-0.5-0.5l-0.5-0.5l-0.8-0.2h-1l0,0H468l-0.8,0.2l-0.8,0.5l-0.5,0.5l0,0l-0.2,0.5l-0.2,1L465.2,367.9L465.2,367.9L465.2,367.9z
		"/>
	<polygon class="st0" points="495.5,412.2 495.5,352.7 510.2,352.7 510.2,359.7 510.2,359.7 511.2,357.7 512.5,356.2 514,354.7 
		515.5,353.7 515.5,353.7 517.2,352.7 519,351.9 520.8,351.7 522.5,351.5 522.5,351.5 525.2,351.7 527.5,352.5 529.5,353.5 
		531,355.2 531,355.2 532.2,357.2 533.2,359.7 533.8,362.7 534,365.9 534,412.2 518.2,412.2 518.2,370.7 518.2,370.7 518,368.7 
		517.5,367.5 517.5,367.5 517,366.7 516.5,366.5 515.8,366.2 515,366.2 515,366.2 514,366.2 513.2,366.5 512.5,366.9 512,367.7 
		512,367.7 511.5,368.7 511.2,369.9 511,373.2 511,412.2 	"/>
	<polygon class="st0" points="424,438.5 424,438.5 423.8,436.7 423.2,435.5 423.2,435.5 423,434.9 422.5,434.7 421,434.5 421,434.5 
		419.8,434.7 419.2,434.9 418.8,435.5 418.8,435.5 418.2,436.7 418,438.5 418,462.9 418,462.9 418.2,464.9 418.8,466.2 418.8,466.2 
		419.2,466.7 419.8,466.9 421,467.2 421,467.2 422.5,466.9 423,466.7 423.2,466.2 423.2,466.2 423.8,464.9 424,462.9 424,454.5 
		437.5,454.5 437.5,461.2 437.5,461.2 437.2,464.7 436.8,466.5 436.5,467.9 435.8,469.5 435.2,470.7 434.2,471.7 433.2,472.9 
		433.2,472.9 432.2,473.7 431,474.5 429.8,475.2 428.2,475.7 425,476.5 421,476.7 421,476.7 417.2,476.5 413.8,475.7 412.5,475.2 
		411,474.5 409.8,473.7 408.8,472.9 408.8,472.9 407.8,471.7 407,470.7 406.2,469.5 405.8,467.9 405.2,466.5 405,464.7 404.8,461.2 
		404.8,440.5 404.8,440.5 405,436.7 405.2,434.9 405.8,433.5 406.2,432.2 407,430.9 407.8,429.7 408.8,428.7 408.8,428.7 
		409.8,427.7 411,426.9 412.5,426.2 413.8,425.7 417.2,424.9 421,424.7 421,424.7 425,424.9 428.2,425.7 429.8,426.2 431,426.9 
		432.2,427.7 433.2,428.7 433.2,428.7 434.2,429.7 435.2,430.9 435.8,432.2 436.5,433.5 436.8,434.9 437.2,436.7 437.5,440.5 
		437.5,444.7 424,444.7 	"/>
	<path class="st0" d="M442.8,440.5L442.8,440.5l0.2-3.8l0.5-1.8l0.2-1.5l0.8-1.2l0.5-1.2l1-1.2l0.8-1l0,0l1.2-1l1.2-0.8l1.2-0.8
		l1.6-0.5l3.2-0.8l4-0.2l0,0l3.8,0.2l3.2,0.8l1.5,0.5l1.5,0.8l1,0.8l1.2,1l0,0l1,1l0.8,1.2l0.8,1.2l0.5,1.2l0.5,1.5l0.2,1.8l0.2,3.8
		v20.8l0,0l-0.2,3.5l-0.2,1.8l-0.5,1.5l-0.5,1.5l-0.8,1.2l-0.8,1l-1,1.2l0,0l-1.2,0.8l-1,0.8l-1.5,0.8l-1.5,0.5l-3.2,0.8l-3.8,0.2
		l0,0l-4-0.2l-3.2-1l-1.5-0.5l-1.2-0.8l-1.3-0.7l-1.2-0.8l0,0l-0.8-1.2l-1-1l-0.5-1.2l-0.8-1.5l-0.2-1.5l-0.5-1.8l-0.2-3.5V440.5
		L442.8,440.5z M462,462.9v-24.5l0,0v-1.7l-0.5-1.2l0,0L461,435l-0.5-0.2l-1.2-0.2l0,0l-1.5,0.2l-0.5,0.2l-0.5,0.5l0,0l-0.5,1.2v1.8
		V463l0,0v2l0.5,1.2l0,0l0.5,0.5l0.5,0.2l1.5,0.2l0,0l1.2-0.2l0.5-0.2l0.5-0.5l0,0l0.5-1.2V462.9L462,462.9L462,462.9z"/>
	<polygon class="st0" points="481.5,475.7 481.5,425.7 494,425.7 494,431.7 494,431.7 495,429.9 496,428.7 497.2,427.5 498.5,426.5 
		498.5,426.5 500,425.7 501.5,425.2 503,424.9 504.8,424.7 504.8,424.7 506.5,424.9 508,425.2 509.5,425.7 510.8,426.7 510.8,426.7 
		511.8,427.7 512.5,428.7 513.2,430.2 513.5,431.7 513.5,431.7 514.5,429.9 515.8,428.7 516.8,427.5 518.2,426.5 518.2,426.5 
		519.5,425.7 521,425.2 522.8,424.9 524.2,424.7 524.2,424.7 526.5,424.9 528.5,425.5 530.2,426.5 531.5,427.7 531.5,427.7 
		532.5,429.5 533.2,431.7 533.8,434.2 534,436.9 534,475.7 520.8,475.7 520.8,440.9 520.8,440.9 520.5,439.2 520,438.2 520,438.2 
		519.5,437.7 519,437.5 517.8,437.2 517.8,437.2 517,437.2 516.2,437.5 515.5,437.9 515,438.5 515,438.5 514.8,439.2 514.5,440.2 
		514.2,442.9 514.2,475.7 501,475.7 501,440.9 501,440.9 501,439.2 500.2,438.2 500.2,438.2 500,437.7 499.5,437.5 498.2,437.2 
		498.2,437.2 497.2,437.2 496.5,437.5 496,437.9 495.5,438.5 495.5,438.5 495.2,439.2 495,440.2 494.8,442.9 494.8,475.7 	"/>
	<polygon class="st0" points="-6.2,441.7 -6.2,456.7 -20,456.7 -20,441.7 	"/>
	<polygon class="st0" points="11,441.7 11,456.7 -2.8,456.7 -2.8,441.7 	"/>
	<polygon class="st0" points="28.2,441.7 28.2,456.7 14.2,456.7 14.2,441.7 	"/>
	<polygon class="st0" points="45.5,441.7 45.5,456.7 31.5,456.7 31.5,441.7 	"/>
	<polygon class="st0" points="62.5,441.7 62.5,456.7 48.8,456.7 48.8,441.7 	"/>
	<polygon class="st0" points="79.8,441.7 79.8,456.7 66,456.7 66,441.7 	"/>
	<polygon class="st0" points="97,441.7 97,456.7 83,456.7 83,441.7 	"/>
	<polygon class="st0" points="114.2,441.7 114.2,456.7 100.2,456.7 100.2,441.7 	"/>
	<polygon class="st0" points="131.2,441.7 131.2,456.7 117.5,456.7 117.5,441.7 	"/>
	<polygon class="st0" points="148.5,441.7 148.5,456.7 134.5,456.7 134.5,441.7 	"/>
	<polygon class="st0" points="165.8,441.7 165.8,456.7 151.8,456.7 151.8,441.7 	"/>
	<polygon class="st0" points="182.8,441.7 182.8,456.7 169,456.7 169,441.7 	"/>
	<polygon class="st0" points="200,441.7 200,456.7 186.2,456.7 186.2,441.7 	"/>
	<polygon class="st0" points="217.2,441.7 217.2,456.7 203.2,456.7 203.2,441.7 	"/>
	<polygon class="st0" points="234.5,441.7 234.5,456.7 220.5,456.7 220.5,441.7 	"/>
	<polygon class="st0" points="251.5,441.7 251.5,456.7 237.8,456.7 237.8,441.7 	"/>
	<polygon class="st0" points="268.8,441.7 268.8,456.7 255,456.7 255,441.7 	"/>
	<polygon class="st0" points="286,441.7 286,456.7 272,456.7 272,441.7 	"/>
	<polygon class="st0" points="303,441.7 303,456.7 289.2,456.7 289.2,441.7 	"/>
	<polygon class="st0" points="320.2,441.7 320.2,456.7 306.5,456.7 306.5,441.7 	"/>
	<polygon class="st0" points="337.5,441.7 337.5,456.7 323.5,456.7 323.5,441.7 	"/>
	<polygon class="st0" points="354.8,441.7 354.8,456.7 340.8,456.7 340.8,441.7 	"/>
	<polygon class="st0" points="371.8,441.7 371.8,456.7 358,456.7 358,441.7 	"/>
	<polygon class="st0" points="389,441.7 389,456.7 375.2,456.7 375.2,441.7 	"/>
	<polygon class="st0" points="4.5,477.9 4.5,477.9 4.5,478.7 4,479.9 4,479.9 3.5,480.9 3.5,480.9 3,481.7 3,481.7 1.2,483.7 
		-1.2,485.7 -1.2,485.7 -4,487.5 -7,489.2 -7,489.2 -10.8,490.9 -10.8,490.9 -14.8,492.2 -14.8,492.2 -14.8,492.9 -14.8,493.7 
		-14.8,493.7 -14.8,494.9 -14.8,494.9 -14.5,497.2 -14.5,497.2 -14.5,499.5 -14.5,499.5 -14.5,501.2 -14.5,501.2 -14.5,501.9 
		-14.8,502.5 -14.8,502.5 -15.2,502.7 -16,502.7 -16,502.7 -16.5,502.7 -16.8,502.2 -17.2,501.5 -17.5,500.7 -17.8,497.9 -18,494.2 
		-18,493.7 -18,493.7 -17.8,491.5 -17.8,491.5 -17.5,488.5 -17.5,488.5 -17.2,487.5 -17.2,487.5 -17,486.2 -17,486.2 -16.8,484.2 
		-16.8,484.2 -16.2,482.5 -16.2,482.5 -16.2,481.7 -16.2,481.7 -16,480.9 -16,480.9 -15.8,479.5 -15.8,479.5 -15.2,478.5 
		-15.2,478.5 -14.5,477.2 -14.5,477.2 -13.8,477.2 -13.8,477.2 -13.2,477.2 -12.8,477.7 -12.8,477.7 -12.5,477.9 -12.5,478.7 
		-12.5,478.7 -12.5,479.2 -12.5,479.2 -13,480.2 -13,480.2 -13.2,481.2 -13.2,481.2 -13.5,481.7 -13.5,481.7 -13.8,482.9 
		-13.8,482.9 -13.8,483.9 -13.8,483.9 -14,485.2 -14,485.2 -14.2,486.2 -14.2,486.2 -14.5,487.5 -14.5,487.5 -14.5,488.5 
		-14.5,488.5 -14.5,489.5 -14.5,489.5 -13.2,488.7 -13.2,488.7 -11.2,487.9 -11.2,487.9 -7.5,486.2 -7.5,486.2 -4.2,484.5 
		-4.2,484.5 -2,482.9 -2,482.9 -0.2,481.2 -0.2,481.2 0.8,480.5 1.2,479.5 1.5,478.7 1.8,477.7 1.8,477.7 1.5,477.5 1.2,476.9 
		0.2,476.7 0.2,476.7 -1.2,476.2 -1.2,476.2 -2.8,476.2 -2.8,476.2 -4.2,475.9 -4.2,475.9 -5.5,475.9 -5.5,475.9 -9.2,476.2 
		-13,476.7 -13,476.7 -15.5,477.5 -18.5,478.5 -18.5,478.5 -19.2,478.5 -19.2,478.5 -20,478.2 -20,478.2 -20,477.9 -20.2,477.7 
		-20.2,477.7 -20,476.9 -19.8,476.2 -19.8,476.2 -19,475.7 -18.2,475.2 -18.2,475.2 -15,474.5 -15,474.5 -12.8,473.9 -12.8,473.9 
		-10.5,473.7 -10.5,473.7 -7,473.5 -7,473.5 -5,473.5 -5,473.5 -3.2,473.5 -3.2,473.5 -1.5,473.7 -1.5,473.7 0.2,473.9 0.2,473.9 
		2,474.7 3.2,475.5 3.2,475.5 3.8,475.9 4.2,476.5 4.5,477.2 4.5,477.9 	"/>
	<path class="st0" d="M34,488.2L34,488.2v0.5l0,0l-0.2,0.5l0,0l-0.2,0.8l0,0l-0.2,0.2l0,0l-0.4,0.5l0,0l-0.5,0.5l0,0l-0.5,0.5l0,0
		l-0.8,0.8l0,0l-2,2l0,0l-2.2,1.8l0,0l-1.2,0.5l-1.2,0.8l0,0l-1.2,0.2h-1.5l0,0l-1.2-0.2l0,0l-1.2-0.8l0,0l-1-1l0,0l-0.8-1.2l0,0
		l-1,1l0,0l-1.2,1.2l0,0l-1.2,1l0,0l-1.5,1.2l0,0l-0.8,0.5l0,0l-1.2,0.5l0,0l-1.2,0.2l0,0l-1,0.2l0,0H7.8l-0.5-0.5l0,0l-1-1l0,0
		l-0.5-1.5l0,0l-0.2-1.5l0,0v-1l0.5-1.2l0,0l0.8-2.5l0,0l1.2-2.2l0,0l1.2-2l0,0l1.8-1.8l0,0l2-1.5l0,0l2-1l0,0l0.8-0.2l1-0.2l0,0
		h0.8l0,0H18l0,0l1,0.2l0,0l0.5,0.2l0,0l0.5,0.5l0,0l0.5,0.8l0,0l0.2,0.8l0,0v0.5l0,0l-0.2,1.5l0,0l-0.5,2.5l0,0l-0.2,2l0,0l0.2,1.2
		l0,0l0.5,1.2l0,0l1,0.8l0,0l0.5,0.2h0.8l0,0h1l1.2-0.2l0,0l1-0.8l1.2-0.5l0,0l2.5-2l0,0l2.2-2.2l0,0l0.2-0.2l0,0l0.5-0.8l0,0
		l0.5-0.2l0,0l0.2-0.2l0,0H34V488.2L34,488.2L34,488.2z M17.8,486.7L17.8,486.7v-0.8l0,0l-0.2-0.8l0,0l-0.2-0.2H17l0,0h-0.5l0,0
		h-1.2l0,0l-1.3,0.8l0,0l-1,0.8l0,0l-1,1l0,0l-0.8,1l0,0l-1,1.2l0,0l-0.8,1.5l0,0L8.6,493l0,0l-0.5,1.5l0,0L8,495.7l0,0v0.5l0,0
		l0.2,0.5l0,0l0.2,0.5l0,0l0.5,0.2l0,0h0.8l1.2-0.5l0,0l1.5-0.8l1.5-1.2l0,0l1.2-1.2l1.2-1.5l0,0l0.7-1.5l0.5-1.2l0.2-1.5
		L17.8,486.7L17.8,486.7L17.8,486.7z M21.5,475.9L21.5,475.9v0.8l-0.5,1l0,0l-0.5,0.8l-0.5,0.8l0,0l-0.8,0.5l-1,0.5l0,0l-0.8,0.2h-1
		l0,0h-0.8l-0.8-0.2l-0.8-0.2l-0.8-0.5l0,0l-0.2-0.9l-0.2-0.5l-0.2-1v-0.8l0,0v-0.5l0.2-0.8l0,0l0.8-1.2l0,0l1-1l0,0l1.2-0.5l0,0
		l2.2-0.5l0,0l0.5,0.2l0.8,0.2l0,0l1.2,0.8l0,0l0.8,1.2l0,0L21.5,475.9L21.5,475.9L21.5,475.9z M19.2,476.2L19.2,476.2l-0.2-1l0,0
		l-0.5-0.8l0,0l-0.5-0.2l0,0h-0.8l0,0H17l0,0h-0.2l0,0h-0.2l0,0h-0.2l0,0l-0.5,0.2l0,0l-0.5,0.8l0,0l-0.2,0.8l0,0l-0.2,0.5l0,0
		l0.2,0.8l0.5,0.8l0,0l0.3,0.6h0.8l0,0l0.8-0.2l0,0l0.8-0.2l0,0l0.8-0.8L19.2,476.2L19.2,476.2L19.2,476.2z"/>
	<polygon class="st0" points="47.2,495.2 47.2,495.2 47.8,492.9 47.8,492.9 48.2,490.2 48.2,490.2 49,486.9 49,486.9 49.5,483.7 
		49.5,483.7 50,480.7 50,480.7 50.2,478.5 50.2,478.5 50.2,477.7 50.2,477.7 50.2,476.9 50.2,476.9 50.5,475.9 50.5,475.9 
		51.2,475.5 51.2,475.5 52,475.2 52.5,475.2 52.5,475.2 53.5,475.5 53.5,475.5 53.8,475.9 53.8,475.9 54,476.7 54,476.7 54.2,477.7 
		54.2,477.7 54.5,478.5 54.5,478.5 55.2,480.5 55.2,480.5 56.5,483.2 56.5,483.2 58.5,486.5 58.5,486.5 60.5,489.7 60.5,489.7 
		63,492.9 63,492.9 65.2,495.9 65.2,495.9 66.2,492.5 66.2,492.5 66.8,489.2 66.8,489.2 67.2,485.7 67.2,485.7 68,482.5 68,482.5 
		68.2,480.5 68.2,480.5 68.5,478.2 68.5,478.2 68.8,476.2 68.8,476.2 69,474.2 69,474.2 69,473.7 69,473.7 69,473.2 69,473.2 
		69,472.5 69,472.5 69.2,472.2 69.2,472.2 70,471.7 70.5,471.5 70.5,471.5 71.5,471.5 71.5,471.5 72,471.7 72,471.7 72.2,472.2 
		72.2,472.2 72.5,473.2 72.5,473.2 72.8,473.7 72.8,473.7 72.5,474.7 72.5,474.7 72.2,475.7 72.2,475.7 72,476.9 72,476.9 
		71.8,477.7 71.8,477.7 71,481.5 71,481.5 70.2,485.5 70.2,485.5 69.5,489.5 69.5,489.5 68.8,492.9 68.8,492.9 68.5,495.5 
		68.5,495.5 68.2,496.7 68.2,496.7 68.2,497.5 68.2,497.5 68.2,497.9 68.2,497.9 68.2,498.7 68.2,498.7 68.2,499.2 68.2,499.2 
		68.2,499.9 68.2,499.9 68,500.5 68,500.5 67.5,500.7 67.5,500.7 67.2,500.9 67.2,500.9 66.5,501.2 66.5,501.2 66,501.2 66,501.2 
		65.5,501.2 65.5,501.2 65,500.9 65,500.9 63.8,499.7 63.8,499.7 63.2,498.5 63.2,498.5 63,497.9 63,497.9 62.8,497.5 62.8,497.5 
		62.5,496.9 62.5,496.9 62.2,496.7 62.2,496.7 59.8,493.5 59.8,493.5 57.5,490.2 57.5,490.2 55.2,486.5 55.2,486.5 52.8,481.9 
		52.8,481.9 51.8,485.9 51.8,485.9 51.2,489.9 51.2,489.9 50.5,493.7 50.5,493.7 50,496.7 50,496.7 50,497.7 50,497.7 50,498.7 
		50,498.7 50,499.7 50,499.7 49.8,500.5 49.8,500.5 49.5,500.9 49.5,500.9 49.2,501.5 49.2,501.5 48.8,501.9 48.8,501.9 48,501.9 
		48,501.9 47.2,501.9 47.2,501.9 46.8,501.5 46.8,501.5 46.5,500.7 46.5,500.7 46.5,499.5 46.5,499.5 46.5,498.7 46.5,498.7 
		46.8,497.7 46.8,497.7 47,496.5 47,496.5 47.2,495.2 	"/>
	<path class="st0" d="M104.2,488.2L104.2,488.2v0.5l0,0l-0.2,0.5l0,0v0.8l0,0l-0.2,0.2l0,0l-0.5,0.5l0,0l-0.5,0.5l0,0l-0.5,0.5l0,0
		l-0.5,0.8l0,0l-2.2,2l0,0l-2.2,1.8l0,0l-1.4,0.4l-1.2,0.8l0,0l-1.2,0.2h-1.2l0,0l-1.5-0.2l0,0l-1.2-0.8l0,0l-1-1l0,0l-0.5-1.2l0,0
		l-1.2,1l0,0l-1.2,1.2l0,0l-1.2,1l0,0l-1.2,1.2l0,0l-1,0.5l0,0l-1.2,0.5l0,0l-1.2,0.2l0,0l-1,0.2l0,0h-0.8l-0.5-0.5l0,0l-1-1l0,0
		l-0.5-1.5l0,0l-0.2-1.5l0,0l0.2-1l-0.2-1.1l0,0l0.8-2.5l0,0L78,489l0,0l1.5-2l0,0l1.5-1.8l0,0l2-1.5l0,0l2-1l0,0l1-0.2l0.8-0.2l0,0
		h0.8l0,0h1l0,0l0.8,0.2l0,0l0.8,0.2l0,0l0.2,0.5l0,0l0.5,0.8l0,0l0.2,0.8l0,0l0.2,0.5l0,0l-0.3,1.4l0,0l-0.8,2.5l0,0v2l0,0v1.2l0,0
		l0.8,1.2l0,0l0.8,0.8l0,0l0.5,0.2h0.8l0,0h1.2l1-0.2l0,0l1.2-0.8l1-0.5l0,0l2.5-2l0,0l2.2-2.2l0,0l0.5-0.2l0,0l0.2-0.8l0,0l0.5-0.2
		l0,0l0.5-0.2l0,0h0.2v0.7H104.2L104.2,488.2z M88.2,486.7L88.2,486.7v-0.8l0,0l-0.2-0.8l0,0l-0.2-0.2h-0.2l0,0h-0.8l0,0h-1.2l0,0
		l-1,0.8l0,0l-1.2,0.8l0,0l-1,1l0,0l-0.8,1l0,0l-1,1.2l0,0l-0.8,1.5l0,0L79,493l0,0l-0.5,1.5l0,0l-0.2,1.2l0,0v0.5l0,0l0.2,0.5l0,0
		l0.2,0.5l0,0l0.5,0.2l0,0h1l1-0.5l0,0l1.8-0.8l1.5-1.2l0,0l1.2-1.2l1-1.5l0,0l0.5-1.5l0.5-1.2l0.2-1.5L88.2,486.7L88.2,486.7
		L88.2,486.7z M85.5,478.2L85.5,478.2l-0.2,0.2l-0.3,0.3l-1.2,0.2l0,0l-1-0.2l0,0l-0.5-0.2l-0.2-0.5l0,0v-0.8l0,0l0.2-0.5l0,0
		l0.2-0.5l0,0l0.8-0.2l0,0l0.8,0.2l0.8,0.5l0,0l0.5,0.5L85.5,478.2L85.5,478.2L85.5,478.2z M92.2,476.7L92.2,476.7l-0.2,0.8
		l-0.2,0.5l-0.5,0.2l-0.8,0.2l0,0l-0.8-0.2l-0.2-0.2l0,0l-0.5-0.5V477l0,0v-0.8l0.2-0.2l0,0l1.5-0.5l0,0l0.5-0.2l0,0l0.5,0.2
		l0.2,0.2l0,0L92.2,476.7L92.2,476.7L92.2,476.7z"/>
	<polygon class="st0" points="120.8,484.5 120.8,484.5 120.8,485.2 120.5,485.5 120.5,485.5 119.5,486.2 119.5,486.2 118.2,486.7 
		118.2,486.7 116.8,486.9 116.8,486.9 115.2,487.2 115.2,487.2 113.8,487.5 113.8,487.5 112,487.7 112,487.7 110.5,487.7 
		110.5,487.7 109,487.9 109,487.9 107.8,488.2 107.8,488.2 107,491.5 107,491.5 106.2,494.5 106.2,494.5 106.2,495.5 106.2,495.5 
		106,496.9 106,496.9 105.8,498.2 105.8,498.2 105.8,499.2 105.8,499.2 105.8,499.9 105.8,500.5 105.8,500.5 106.5,500.9 
		106.5,500.9 107,501.5 107,501.5 107.2,501.9 107.2,501.9 107,502.5 107,502.5 106.2,502.9 106.2,502.9 105.5,503.2 105.5,503.2 
		105,503.2 105,503.2 104.5,503.2 104,502.9 104,502.9 103.2,502.2 103.2,502.2 102.8,501.2 102.8,501.2 102.5,499.9 102.5,499.9 
		102.8,498.2 102.8,498.2 103.2,496.2 103.2,496.2 103.5,494.2 103.5,494.2 104,492.2 104,492.2 104.2,491.2 104.2,491.2 
		104.5,490.2 104.5,490.2 104.5,489.7 104.5,489.7 104.5,489.2 104.5,489.2 104.5,488.9 104.5,488.9 104,488.7 104,488.7 
		103.2,488.7 103.2,488.7 102.2,488.7 102.2,488.7 101.5,488.9 101.5,488.9 100.8,488.9 100.8,488.9 99.8,488.9 99.8,488.9 
		99,488.5 99,488.5 98.5,487.9 98.5,487.9 98.5,486.9 98.5,486.9 98.8,486.5 98.8,486.5 99.2,486.5 99.2,486.5 100,486.2 100,486.2 
		100.5,486.2 100.5,486.2 101.2,486.2 101.2,486.2 102.5,486.2 102.5,486.2 103.5,485.9 103.5,485.9 104.5,485.9 104.5,485.9 
		104.8,485.9 104.8,485.9 105,485.9 105,485.9 105.2,485.7 105.2,485.7 105.5,484.9 105.5,484.9 105.8,483.7 105.8,483.7 106,482.2 
		106,482.2 106.5,480.7 106.5,480.7 106.8,479.5 106.8,479.5 107,478.2 107,478.2 107.2,477.2 107.2,477.2 107.5,475.9 107.5,475.9 
		107.8,474.9 107.8,474.9 108.2,474.5 109.2,474.2 109.2,474.2 109.8,474.2 110.2,474.5 110.5,474.9 110.5,475.7 110.5,475.7 
		110.5,476.7 110,477.7 110,477.7 108.8,482.2 108.8,482.2 108.5,484.7 108.5,484.7 108.5,485.2 109,485.2 109,485.2 110.5,485.2 
		110.5,485.2 112,485.2 112,485.2 113.5,484.9 113.5,484.9 115.5,484.9 115.5,484.9 116.8,484.7 116.8,484.7 118,484.5 118,484.5 
		119,484.2 119,484.2 119.8,483.9 119.8,483.9 120.2,483.9 120.2,483.9 120.5,483.9 120.5,483.9 120.8,484.2 120.8,484.2 
		120.8,484.5 	"/>
	<path class="st0" d="M138,487.9L138,487.9l-0.5,1l0,0l-2,2.8l0,0l-2.5,2.5l0,0l-2.8,2.2l0,0l-3,2l0,0l-1.5,0.5l-1.2,0.5l0,0
		l-1.5,0.5h-1.5l0,0l-1.2-0.2l-1.2-0.2l-1-0.5l-1-0.8l0,0l-0.5-1l-0.5-1l-0.5-1.5v-1.5l0,0l0.2-2.8l0.8-2.8l0,0l0.5-1.5l0.5-1.2
		l2-2.5l0,0l0.8-0.8l0,0l1-0.8l0,0l1.2-0.5l0,0l1.2-0.2l0,0h0.2l0,0l0.5,0.2l0,0l0.8,0.2l0,0l0.2,0.2l0,0l1,1.2l0,0l0.2,1.2l0,0
		l-0.2,1.8l0,0l-0.8,1.5l0,0l-1.2,1.8l0,0l-2.2,2l0,0l-1.8,1.5l0,0l-2.2,1.5l0,0l0.2,1.8l0.2,0.5l0.5,0.5l0,0l1.2,0.8l1.8,0.2l0,0
		l2-0.2l0,0l2.2-0.8l0,0l1.8-1l0,0l2-1.2l0,0l2.8-2.2l0,0l2.5-2.2l1-1l0,0l0.8-0.8h0.5l0,0l0,0L138,487.9L138,487.9L138,487.9z
		 M124,484.5L124,484.5v-0.8l0,0l-0.2-0.2l0,0l-0.2-0.5l0,0H123l0,0l-0.8,0.2l-1,1l0,0l-1,1.2l-1,1.5l0,0l-0.2,1l0,0l-0.2,1l0,0
		l-0.2,1l0,0l-0.2,1l0,0l1.8-1.5l0,0l1.5-1l0,0l1-1l0,0l0.8-1l0,0l0.5-1l0,0L124,484.5L124,484.5L124,484.5z"/>
	<polygon class="st0" points="154.2,484.5 154.2,484.5 154,485.2 153.8,485.5 153.8,485.5 153,486.2 153,486.2 151.8,486.7 
		151.8,486.7 150.2,486.9 150.2,486.9 148.5,487.2 148.5,487.2 147,487.5 147,487.5 145.5,487.7 145.5,487.7 143.8,487.7 
		143.8,487.7 142.2,487.9 142.2,487.9 141.2,488.2 141.2,488.2 140.5,491.5 140.5,491.5 139.8,494.5 139.8,494.5 139.5,495.5 
		139.5,495.5 139.2,496.9 139.2,496.9 139.2,498.2 139.2,498.2 139,499.2 139,499.2 139,499.9 139.2,500.5 139.2,500.5 139.8,500.9 
		139.8,500.9 140.2,501.5 140.2,501.5 140.5,501.9 140.5,501.9 140.2,502.5 140.2,502.5 139.8,502.9 139.8,502.9 139,503.2 
		139,503.2 138.2,503.2 138.2,503.2 137.8,503.2 137.2,502.9 137.2,502.9 136.8,502.2 136.8,502.2 136.2,501.2 136.2,501.2 
		136,499.9 136,499.9 136.2,498.2 136.2,498.2 136.5,496.2 136.5,496.2 137,494.2 137,494.2 137.5,492.2 137.5,492.2 137.8,491.2 
		137.8,491.2 137.8,490.2 137.8,490.2 138,489.7 138,489.7 138,489.2 138,489.2 137.8,488.9 137.8,488.9 137.2,488.7 137.2,488.7 
		136.8,488.7 136.8,488.7 135.8,488.7 135.8,488.7 134.8,488.9 134.8,488.9 134.2,488.9 134.2,488.9 133,488.9 133,488.9 
		132.2,488.5 132.2,488.5 132,487.9 132,487.9 131.8,486.9 131.8,486.9 132,486.5 132,486.5 132.5,486.5 132.5,486.5 133.2,486.2 
		133.2,486.2 134,486.2 134,486.2 134.8,486.2 134.8,486.2 136,486.2 136,486.2 137,485.9 137,485.9 137.8,485.9 137.8,485.9 
		138,485.9 138,485.9 138.2,485.9 138.2,485.9 138.8,485.7 138.8,485.7 138.8,484.9 138.8,484.9 139.2,483.7 139.2,483.7 
		139.5,482.2 139.5,482.2 140,480.7 140,480.7 140.2,479.5 140.2,479.5 140.5,478.2 140.5,478.2 140.8,477.2 140.8,477.2 141,475.9 
		141,475.9 141.2,474.9 141.2,474.9 141.8,474.5 142.5,474.2 142.5,474.2 143.2,474.2 143.5,474.5 143.8,474.9 144,475.7 144,475.7 
		143.8,476.7 143.5,477.7 143.5,477.7 142.2,482.2 142.2,482.2 141.8,484.7 141.8,484.7 142,485.2 142.5,485.2 142.5,485.2 
		144,485.2 144,485.2 145.5,485.2 145.5,485.2 147,484.9 147,484.9 148.8,484.9 148.8,484.9 150.2,484.7 150.2,484.7 151.5,484.5 
		151.5,484.5 152.5,484.2 152.5,484.2 153.2,483.9 153.2,483.9 153.5,483.9 153.5,483.9 153.8,483.9 153.8,483.9 154,484.2 
		154,484.2 154.2,484.5 	"/>
	<polygon class="st0" points="182.8,487.5 182.8,487.5 182.5,487.9 182.5,487.9 182.2,488.7 182.2,488.7 181.5,489.5 181.5,489.5 
		180.8,490.2 180.8,490.2 180.2,490.9 180.2,490.9 179.5,491.7 179.5,491.7 178.8,492.5 178.8,492.5 177.5,493.7 177.5,493.7 
		176,494.9 176,494.9 174.5,496.5 174.5,496.5 173,497.7 173,497.7 171.5,498.7 171.5,498.7 169,500.7 169,500.7 166.8,502.5 
		166.8,502.5 164.8,503.5 164,503.7 163.2,503.9 163.2,503.9 162.2,503.7 162.2,503.7 161.8,503.5 161.5,502.9 161.5,502.9 
		161.8,501.9 162.5,501.2 162.5,501.2 163.5,500.5 165.2,499.7 165.2,499.7 166.8,499.2 167.8,498.5 167.8,498.5 168.5,497.5 
		168.8,496.5 168.8,496.5 168.5,495.7 167.5,493.9 167.5,493.9 166.5,492.5 166.5,492.5 165.5,490.9 165.5,490.9 165,489.7 
		165,488.2 165,488.2 165,486.9 165.2,485.7 165.2,485.7 166,484.2 166,484.2 167,482.9 167,482.9 168.2,481.9 168.2,481.9 
		168.8,481.7 169.2,481.5 169.2,481.5 170,481.7 170.5,481.9 170.8,482.7 170.8,483.5 170.8,483.5 170.8,484.2 170.2,484.9 
		170.2,484.9 169.8,485.5 169.8,485.5 169,486.2 169,486.2 168,486.9 168,486.9 167.5,487.5 167.5,487.5 167.8,488.5 168.2,489.7 
		168.2,489.7 169,490.9 169,490.9 169.8,492.5 169.8,492.5 170.8,493.9 170.8,493.9 171.2,494.9 171.2,494.9 171.5,495.2 
		171.5,495.2 172.2,494.7 172.2,494.7 173.8,493.7 173.8,493.7 175.8,492.2 175.8,492.2 177.8,490.5 177.8,490.5 179.5,488.9 
		179.5,488.9 180.8,487.5 180.8,487.5 181.8,486.7 181.8,486.7 182,486.2 182,486.2 182.2,486.5 182.2,486.5 182.5,486.7 
		182.5,486.7 182.8,486.9 182.8,486.9 182.8,487.5 	"/>
	<path class="st0" d="M201.8,487.9L201.8,487.9l-0.5,1l0,0l-2,2.8l0,0l-2.5,2.5l0,0l-2.8,2.2l0,0l-3,2l0,0l-1.5,0.5l-1.2,0.5l0,0
		l-1.5,0.5h-1.5l0,0l-1.3-0.2l-1.2-0.2l-1-0.5l-1-0.8l0,0l-0.5-1l-0.5-1l-0.5-1.5v-1.5l0,0l0.2-2.8l0.8-2.8l0,0l0.5-1.5l0.5-1.2
		l2-2.5l0,0l0.8-0.8l0,0l1-0.8l0,0l1.2-0.5l0,0l1.2-0.2l0,0h0.2l0,0l0.5,0.2l0,0l0.8,0.2l0,0l0.2,0.2l0,0l1,1.2l0,0l0.2,1.2l0,0
		l-0.2,1.8l0,0l-0.8,1.5l0,0l-1.2,1.8l0,0l-2.2,2l0,0l-1.8,1.5l0,0l-2.2,1.5l0,0l0.2,1.8l0.2,0.5l0.5,0.5l0,0l1.2,0.8l1.8,0.2l0,0
		l2-0.2l0,0l2.2-0.8l0,0l1.8-1l0,0l2-1.2l0,0l2.8-2.2l0,0l2.5-2.2l1-1l0,0l0.8-0.8h0.5l0,0l0,0L201.8,487.9L201.8,487.9L201.8,487.9
		z M187.8,484.5L187.8,484.5v-0.8l0,0l-0.2-0.2l0,0l-0.2-0.5l0,0h-0.5l0,0l-0.8,0.2l-1,1l0,0l-1,1.2l-1,1.5l0,0l-0.2,1l0,0l-0.2,1
		l0,0l-0.2,1l0,0l-0.2,1l0,0l1.8-1.5l0,0l1.5-1l0,0l1-1l0,0l0.8-1l0,0l0.5-1l0,0L187.8,484.5L187.8,484.5L187.8,484.5z"/>
	<path class="st0" d="M227.8,487.9L227.8,487.9l-0.2,1l0,0l-0.8,1l-1.2,1.2l0,0l-1.5,1.8l0,0l-1.5,1.5l0,0l-1.8,1.5l0,0l-1.5,1.2
		l0,0l-1.5,0.8l-1,0.2l0,0l-1-0.2l0,0l-1-0.8l-0.8-1.2l0,0l-0.5-1.2l-0.5-1.5l0,0l-0.5-3.5l0,0l-1,2l-1.5,2l-1.5,1.8l-1.8,1.8l0,0
		l-1.7,1.4l-2,1l-1.8,0.5l-2,0.2l0,0h-0.5l-0.5-0.2l-0.8-0.8l0,0l-0.2-1.2L197,497l0,0v-1.3l0.2-1l0,0l0.8-2.2l1-2.2l0,0l1.2-2
		l1.2-2l0,0l2-2.5l0,0l1.2-1l1-0.8l0,0l1.8-0.5l2-0.2l0,0l0.8,0.2l0.8,0.8l0,0l0.5,1l0.5,1.2l0,0l0.2,2l0,0l0.5-1.8l0,0l0.2-2l0,0
		l0.5-2l0,0l0.2-2.5l0,0v-0.8l0,0v-1.2l0,0l0.2-2.2l0,0l0.2-1.2l0,0l0.8-0.5l0.8-0.2l0,0l1.2,0.2l0,0l0.2,0.2l0.2,0.2l0,0v0.8l0,0
		l-0.2,1.2l0,0l-0.5,2l0,0l-0.5,2.8l0,0l-0.2,0.8l0,0v1l0,0l-0.2,1.2l0,0l-0.2,0.5l0,0l-0.2,2.8l0,0l-0.2,2.8l0,0l0.2,2.5l0,0
		l0.2,2.8l0,0l0.2,1l0.2,0.5l0,0l0.8-0.2l1-0.2l2-1l0,0l2-1.5l2-1.8l0,0l3.2-3.2l0,0l0.2-0.2l0,0l0.2,0.2v0.2l0,0L227.8,487.9
		L227.8,487.9L227.8,487.9z M210.8,489.2L210.8,489.2l-0.5-0.2l-0.3-0.3l0,0l-0.2-1l0,0l0.2-1l0,0v-1l0,0l-0.2-0.8l0,0l-0.5-0.8l0,0
		l-0.5-0.8l0,0l-0.8-0.2l0,0l-0.5,0.2l-0.5,0.4l-1.5,1.5l0,0l-1.5,2l0,0l-1.2,2l0,0l-1.2,1.8l0,0l-0.8,1.5l0,0l-0.8,2l-0.2,1.8l0,0
		v0.8l0.2,0.5l0.5,0.2h0.5l0,0l1.2-0.2l1.5-0.8l0,0l1.5-1.2l1.2-1l0,0l1.8-2l0,0l1-1l0,0l0.8-1l0,0L210.8,489.2L210.8,489.2
		L210.8,489.2z"/>
	<path class="st0" d="M252,488.2L252,488.2v0.5l0,0v0.5l0,0l-0.2,0.8l0,0l-0.2,0.2l0,0l-0.6,0.5l0,0l-0.2,0.5l0,0l-0.8,0.5l0,0
		l-0.5,0.8l0,0l-2.2,2l0,0l-2.2,1.8l0,0l-1,0.5l-1.2,0.8l0,0l-1.5,0.2H240l0,0l-1.5-0.2l0,0l-1.2-0.8l0,0l-1-1l0,0l-0.5-1.2l0,0
		l-1.2,1l0,0l-1,1.2l0,0l-1.5,1l0,0l-1.2,1.2l0,0l-1,0.5l0,0l-1.2,0.5l0,0l-1,0.2l0,0l-1.2,0.2l0,0h-0.8l-0.5-0.5l0,0l-1-1l0,0
		l-0.5-1.5l0,0v-1.5l0,0v-1l0.2-1.2l0,0l1-2.5l0,0l1.2-2.2l0,0l1.2-2l0,0l1.5-1.8l0,0l2-1.5l0,0l2-1l0,0l1-0.2l0.8-0.2l0,0h0.8l0,0
		h1l0,0l0.8,0.2l0,0l0.8,0.2l0,0l0.5,0.5l0,0l0.2,0.8l0,0l0.2,0.8l0,0l0.2,0.5l0,0l-0.2,1.5l0,0l-0.5,2.5l0,0l-0.2,2l0,0l0.2,1.2
		l0,0l0.5,1.2l0,0l0.8,0.8l0,0l0.8,0.2h0.5l0,0h1.2l1-0.2l0,0l1.2-0.8l1.2-0.5l0,0l2.2-2l0,0l2.2-2.2l0,0l0.5-0.2l0,0l0.5-0.8l0,0
		l0.5-0.2l0,0l0.2-0.2l0,0h0.2L252,488.2L252,488.2L252,488.2z M236,486.7L236,486.7v-0.8l0,0l-0.2-0.8l0,0l-0.2-0.2h-0.2l0,0h-0.5
		l0,0h-1.2l0,0l-1.2,0.8l0,0l-1,0.8l0,0l-1,1l0,0l-1,1l0,0l-1,1.2l0,0l-0.8,1.5l0,0l-0.8,1.8l0,0l-0.5,1.5l0,0l-0.4,1.2l0,0l0.2,0.5
		l0,0v0.5l0,0l0.2,0.5l0,0l0.5,0.2l0,0h1l1-0.5l0,0l1.8-0.8l1.5-1.2l0,0l1.2-1.2l1-1.5l0,0l0.8-1.5l0.2-1.2l0.5-1.5v-1.3H236
		L236,486.7z"/>
	<polygon class="st0" points="280.8,487.5 280.8,487.5 280.8,488.2 280.8,488.2 280.2,488.9 280.2,488.9 280,489.7 280,489.7 
		279.5,490.2 279.5,490.2 278.2,491.9 278.2,491.9 276.8,493.5 276.8,493.5 275.2,494.9 275.2,494.9 273.5,496.2 273.5,496.2 
		272.2,497.2 272.2,497.2 271,497.7 271,497.7 269.8,498.2 269.8,498.2 268.5,498.5 268.5,498.5 267,498.2 266,497.7 266,497.7 
		265,496.7 265,496.7 264.5,495.2 264.5,495.2 264,493.7 264,493.7 263.8,491.9 263.8,491.9 263.5,490.2 263.5,490.2 263,488.9 
		263,488.9 262.5,487.9 262.5,487.9 262.2,487.7 262,487.7 262,487.7 261.2,487.7 261.2,487.7 260.5,487.9 260.5,487.9 259.8,488.7 
		259.8,488.7 259,489.7 259,489.7 257.8,491.5 257.8,491.5 256,493.7 256,493.7 255,494.9 255,494.9 253.8,496.5 253.8,496.5 
		252.5,497.7 252.5,497.7 251.5,498.2 251.5,498.2 250.8,497.9 250.2,497.2 250,495.9 249.8,494.5 249.8,494.5 250,491.5 250,491.5 
		250.2,489.5 250.2,489.5 250.8,487.7 250.8,487.7 251.2,485.7 251.2,485.7 251.8,483.9 251.8,483.9 252.2,483.5 252.2,483.5 
		252.5,483.2 252.5,483.2 253,482.9 253,482.9 253.5,482.9 253.5,482.9 253.8,483.2 254,483.5 254,483.5 254.2,484.5 254.2,484.5 
		254.2,485.2 254.2,485.2 254,486.2 254,486.2 253.8,486.9 253.8,486.9 253.5,487.9 253.5,487.9 253.2,489.2 253.2,489.2 253,490.5 
		253,490.5 252.8,491.5 252.8,491.5 252.8,492.7 252.8,492.7 252.8,493.2 252.8,493.2 253.5,492.9 254.5,491.7 254.5,491.7 
		255.8,490.2 255.8,490.2 257.2,488.2 257.2,488.2 258.5,486.7 258.5,486.7 259.8,485.5 259.8,485.5 261.2,484.7 261.2,484.7 
		262,484.5 262.8,484.5 262.8,484.5 263.8,484.5 264.2,484.7 264.2,484.7 265,485.2 265.2,485.9 265.2,485.9 266,487.7 266,487.7 
		266.2,489.7 266.2,489.7 266.5,491.7 266.5,491.7 267,493.7 267,493.7 267.2,494.2 267.8,494.9 267.8,494.9 268.2,495.2 
		269.2,495.5 269.2,495.5 270,495.2 271,494.9 271,494.9 272.8,493.9 272.8,493.9 274.8,492.5 274.8,492.5 276.8,490.5 276.8,490.5 
		277.8,489.5 277.8,489.5 278.5,488.5 278.5,488.5 279.5,487.5 279.5,487.5 280.2,486.9 280.2,486.9 280.5,487.2 280.5,487.2 
		280.8,487.5 	"/>
	<polygon class="st0" points="314.5,495.2 314.5,495.2 314.5,495.7 314.2,495.9 314.2,495.9 313.2,496.5 312.2,496.7 312.2,496.7 
		309.8,497.2 309.8,497.2 307.2,497.5 307.2,497.5 304.8,498.2 304.8,498.2 305,498.7 305,498.7 305,499.2 305,499.2 304.8,499.7 
		304.2,499.9 303.5,500.2 302.5,500.2 302.5,500.2 302.2,499.9 302.2,499.9 301.8,499.5 301.8,499.5 301.5,499.2 301.5,499.2 
		301.2,498.9 301.2,498.9 299.2,499.5 299.2,499.5 297.8,499.9 297.8,499.9 297,500.2 297,500.2 295.2,500.7 294,500.9 294,500.9 
		293.2,500.7 292.8,500.5 292.8,500.5 292.2,499.9 292,499.2 292,499.2 292.2,498.7 292.5,498.5 293.5,497.9 293.5,497.9 
		296.8,497.2 296.8,497.2 299,496.7 299,496.7 301.2,495.9 301.2,495.9 301.2,493.9 301.2,493.9 301.5,492.2 301.5,492.2 
		301.8,490.5 301.8,490.5 302,487.9 302,487.9 302.5,483.7 302.5,483.7 302.8,481.9 302.8,481.9 303,480.5 303,480.5 301.8,480.7 
		300.2,481.7 300.2,481.7 299,482.5 299,482.5 298,482.7 298,482.7 296,483.5 296,483.5 294.2,483.7 294.2,483.7 293.8,483.7 
		293.8,483.5 293.8,483.5 293.5,482.7 293.5,482.7 293.5,481.9 294,481.5 294,481.5 296,480.7 296,480.7 297,480.2 297,480.2 
		297.5,479.9 297.5,479.9 299,479.2 299,479.2 300.2,478.5 300.2,478.5 301.8,477.7 301.8,477.7 304,476.5 304,476.5 305.8,475.5 
		305.8,475.5 306.2,475.7 306.8,476.2 306.8,476.2 307,476.9 307,477.7 307,477.7 307,478.2 306.5,478.7 306.5,478.7 305.8,482.5 
		305.8,482.5 305,486.5 305,486.5 304.5,489.9 304.2,492.7 304.2,492.7 304.2,493.2 304.2,493.2 304.2,493.5 304.2,493.5 
		304.2,493.9 304.2,493.9 304.2,494.5 304.2,494.5 304.2,494.9 304.2,494.9 304.5,495.5 304.5,495.5 306,495.2 308.2,494.7 
		308.2,494.7 310.5,494.2 310.5,494.2 311.8,493.9 311.8,493.9 313,493.7 313,493.7 314.2,493.7 314.2,493.7 314.5,494.5 
		314.5,495.2 	"/>
	<path class="st0" d="M340.2,480.5L340.2,480.5v0.8l-0.5,0.8l0,0l-1,2.5l0,0l-0.5,2l0,0l-1,2.8l0,0l-1,4.2l0,0l-0.2,1l0,0l-0.2,1
		l0,0l-0.2,1l0,0v1.2l0,0v1.2l-0.2,0.8l-0.5,0.5l-0.5,0.2l0,0l-0.8-0.2l-0.6-0.6l0,0l-0.5-1l0,0l-0.2-1.2l0,0l0.5-2.2l0,0l0.5-1.8
		l0,0l0.5-1.8l0,0l0.5-1.8l0,0l0.2-1.2l-0.2-0.2l0,0l-1.5,0.8l0,0l-1.5,0.8l0,0l-1.3,0.6l-1,0.2l0,0l-3.5,0.5l0,0l-0.8-0.2l-0.8-0.8
		l0,0l-1-0.8l-0.8-1l0,0l-0.5-1l-0.2-0.8l0,0l0.2-1.8l0.8-1.8l0,0l1-1.5l1.2-1l0,0l1.5-1.2l0,0l1.8-1.5l0,0l2-0.8l0,0l1.2-0.5l0,0
		l1.2-0.2l0,0l2-0.2l0,0h1.5l0,0l1,0.5l0,0l0.8,0.8l0,0l1.2,1l0,0l0.5,0.5l0,0l0.5,0.2l0,0L340.2,480.5L340.2,480.5L340.2,480.5z
		 M337,480.9L337,480.9l-0.2-0.8l-0.8-0.4l0,0l-1-0.2l-1-0.2l0,0l-1.8,0.2l-1.2,0.2l0,0l-1.2,0.8l-1.5,0.8l0,0l-1.2,1.2l0,0
		l-1.2,1.2l0,0l-0.8,1.2l-0.5,1.5l0,0l0.2,1l0.5,0.8l0,0l1,0.5h1l0,0h1.5l2-0.8l0,0l1.8-1l1.8-1l0,0l1.2-1.2l0,0l0.5-1.2l0,0
		l0.5-1.2l0,0L337,480.9L337,480.9L337,480.9z"/>
	<path class="st0" d="M367.5,480.5L367.5,480.5l-0.2,0.8l-0.2,0.8l0,0l-1,2.5l0,0l-0.8,2l0,0l-0.8,2.8l0,0l-1.2,4.2l0,0l-0.2,1l0,0
		l-0.2,1l0,0v1l0,0l-0.2,1.2l0,0v1.2l-0.2,0.8l-0.2,0.5l-0.8,0.2l0,0l-0.8-0.2l-0.7-0.6l0,0l-0.5-1l0,0v-1.2l0,0l0.5-2.2l0,0
		l0.5-1.8l0,0l0.5-1.8l0,0l0.5-1.8l0,0l0.2-1.2l-0.2-0.2l0,0l-1.5,0.8l0,0l-1.5,0.8l0,0l-1.5,0.6l-1,0.2l0,0l-3.2,0.5l0,0l-0.8-0.2
		l-1-0.8l0,0l-0.8-0.8l-1-1l0,0l-0.5-1v-0.8l0,0l0.2-1.8l0.5-1.8l0,0l1-1.5l1.2-1l0,0l1.5-1.2l0,0l2-1.5l0,0l1.8-0.8l0,0l1.5-0.5
		l0,0l1.2-0.2l0,0l2-0.2l0,0h1.2l0,0l1,0.5l0,0l1,0.8l0,0l1,1l0,0l0.8,0.5l0,0l0.2,0.2l0,0L367.5,480.5L367.5,480.5L367.5,480.5z
		 M364.2,480.9L364.2,480.9l-0.5-0.8l-0.7-0.4l0,0l-1-0.2l-1-0.2l0,0l-1.5,0.2l-1.5,0.2l0,0l-1.2,0.8l-1.2,0.8l0,0l-1.2,1.2l0,0
		l-1.4,1.2l0,0l-1,1.2l-0.2,1.5l0,0l0.2,1l0.5,0.8l0,0l0.8,0.5h1.2l0,0h1.5l1.8-0.8l0,0l3.5-2l0,0l1.5-1.2l0,0l0.5-1.2l0,0l0.5-1.2
		l0,0L364.2,480.9L364.2,480.9L364.2,480.9z"/>
	<path class="st0" d="M395.8,491.9L395.8,491.9v0.8l-0.2,1l0,0l-1,1.5l0,0l-1.5,1.2l0,0l-1.5,1.2l0,0l-1.8,1l0,0l-1.5,0.8l0,0
		l-1,0.5l-1.5,0.2l-1.8,0.2h-2l0,0l-1.5-0.2l-1.2-0.2l0,0l-1.5-0.5l-1-0.8l0,0l-1.2-1l-0.8-1l0,0l-0.5-1.2l-0.5-1.2l0,0l0.2-2.8l0,0
		l0.8-2.2l0,0l1-2.2l0,0l1.2-2.2l0,0l1.5-1.8l0,0l1.5-1.8l0,0l1.5-1.5l0,0l1.8-1.5l0,0l1-0.8l0,0l1-0.8l0,0l1-0.2l0,0l1-0.2l0,0
		l0.8,0.2l0,0l0.5,0.2l0,0l0.5,0.5l0,0v0.5l0,0l-0.2,1v0.2l-0.5,0.2l0,0h-0.8l0,0l-1,0.5l0,0l-0.8,0.5l0,0l-1,0.8l0,0l-2.8,2.5l0,0
		l-2.5,3.2l0,0l-1.2,1.5l-0.8,1.8l0,0l-0.5,1.9l-0.2,1.8l0,0l0.2,1.2l0,0l0.5,0.8l0,0l1,1l0,0l1,0.5l0,0v-0.3l0,0v-0.5l0,0l0.2-2.2
		l0.5-1.5l0,0l1-2l0,0l1.2-1.2l0,0l1.5-1l0,0l2-0.8l0,0l0.8-0.2l0,0h1l0,0l1-0.2l0,0h1l0,0h1l1.2,0.5l0,0l1,0.2l0.8,0.8l0,0l1,0.8
		l0.5,0.8l0,0l0.5,1L395.8,491.9L395.8,491.9L395.8,491.9z M393,491.9L393,491.9l-0.2-0.8l0,0l-1-0.8l0,0l-1.2-0.5l0,0l-2-0.2l0,0
		l-1.5,0.2l-1.5,0.2l0,0l-1,0.8l-1,0.8l0,0l-0.8,1.2l-0.5,1.2l0,0l-0.5,1.5v1.5l0,0l0.5,0.2l0,0h0.8l0,0h0.5l0,0h0.8l0,0l2-0.2l0,0
		l2-0.8l0,0l1.8-1l0,0l1.5-1.2l0,0l1.2-1.2l0,0l0.2-0.5L393,491.9L393,491.9L393,491.9z"/>
</g>
</svg>
