<?xml version="1.0" encoding="utf-8"?>
<!-- Generator: Adobe Illustrator 19.1.0, SVG Export Plug-In . SVG Version: 6.00 Build 0)  -->
<svg version="1.1" id="Lager_1" xmlns="http://www.w3.org/2000/svg" xmlns:xlink="http://www.w3.org/1999/xlink" x="0px" y="0px"
	 viewBox="-20 337.7 554 166.2" style="enable-background:new -20 337.7 554 166.2;" xml:space="preserve">
<style type="text/css">
	.st0{fill:#1D1D1B;}
</style>
<g>
	<path class="st0" d="M-19.4,412.2v-74.5h24l0,0l4.5,0.2l2,0.5l1.7,0.3l1.8,0.8l1.5,0.8l1.5,0.6l1.2,1l0,0l1,1l1,1.2l0.8,1.6
		l0.5,1.2l0.5,1.8l0.5,1.8l0.2,2v2v4.2l0,0l-0.2,2.8l-0.3,2.2l-0.8,2.2l-1,1.8l0,0l-1.2,1.8l-1.4,1.2l-2,1.2l-2.2,1l0,0l2.2,0.8
		l2,1.2l1.5,1.2l1.2,1.5l0,0l1,1.8l0.8,2.2l0.2,2.5l0.2,2.8v17.2l0,0v2.8l0.5,2l0,0l0.5,1.8l0.5,1.5h-17l0,0l-0.4-1.5l-0.2-1.8l0,0
		l-0.4-2.2v-3.2v-14.3l0,0l-0.2-2.7l-0.2-2.2l-0.8-1.8l-0.8-1l0,0l-1.2-0.8l-1.5-0.8l-2.3-0.2l-2.8-0.2v32.8L-19.4,412.2
		L-19.4,412.2z M-2.9,367.7L-2.9,367.7l2.8-0.2l2-0.2l1.7-0.6l1.2-0.5l0,0l0.8-1l0.8-1l0.2-1.5l0.2-1.5V357l0,0l-0.2-1.8l-0.2-1.5
		l-0.8-1l-0.8-1l0,0l-1-0.5l-1.7-0.5l-1.8-0.2h-2.5H-3L-2.9,367.7L-2.9,367.7z"/>
	<path class="st0" d="M48.1,396.9L48.1,396.9l0.2,2.2l0.2,0.8l0.2,0.8l0,0l0.5,0.5l0.8,0.2l0.8,0.2h0.8l0,0h1l0.8-0.2l0.5-0.2
		l0.5-0.5l0,0l0.2-0.8l0.2-0.8l0.2-2.2v-7h16v4.8l0,0v2.2l-0.2,2l-0.5,2l-0.5,1.8l-0.8,1.8l-0.8,1.5l-1,1.5l-1,1.2l0,0l-1.5,1
		l-1.1,1l-1.8,0.8L60,412l-1.8,0.5L56,413l-2,0.2h-2.4l0,0h-2.2l-2.2-0.2l-2-0.2l-2-0.8l-1.8-0.5l-1.6-0.8l-1.5-1l-1.2-1l0,0
		l-1.2-1.2l-1-1.5l-0.8-1.5l-0.8-1.5l-0.5-2l-0.2-2l-0.2-2v-2.3v-24.8l0,0v-2.2l0.2-2l0.2-2l0.5-1.8l0.8-1.8l0.8-1.5l1-1.2l1.2-1.2
		l0,0l1.2-1.2l1.5-0.8l1.5-1l1.8-0.5l2-0.5l2-0.5h2.2l2.2-0.2l0,0l2.5,0.2h2l2.2,0.5l1.8,0.5l1.8,0.5l1.8,1l1.2,0.8l1.5,1.2l0,0
		l1,1.2l1,1.2l0.8,1.5l0.8,1.8l0.5,1.8l0.5,2l0.2,2v2.2v15h-23V396.9L48.1,396.9z M48.1,367.9v6.2h7v-6.2l0,0l-0.3-2.2l-0.2-1
		l-0.2-0.5l0,0l-0.6-0.5l-0.8-0.5l-0.4-0.3h-1l0,0h-0.8l-0.8,0.2l-0.6,0.6l-0.5,0.5l0,0l-0.3,0.5l-0.2,1L48.1,367.9L48.1,367.9
		L48.1,367.9z"/>
	<polygon class="st0" points="78.1,412.2 78.1,337.7 93.8,337.7 93.8,378.7 102.6,352.7 118.8,352.7 108.8,378.2 119.1,412.2 
		102.6,412.2 93.8,379.7 93.8,412.2 	"/>
	<polygon class="st0" points="122.1,412.2 122.1,337.7 137.8,337.7 137.8,412.2 	"/>
	<path class="st0" d="M168.4,407.9L168.4,407.9l-2.8,2.2l-1.5,1l-1.5,0.8l0,0l-1.2,0.5l-1.5,0.5l-1.5,0.2h-1.8l0,0l-2.5-0.2
		l-2.5-0.8l-2-1.2l-1.8-1.5l0,0l-1.5-2.2l-1-2.5l-0.5-2.8l-0.2-3v-4.8l0,0v-2.8l0.5-2.8l1-2.2l1-2l0,0l1.8-2l1.7-1.6l2.2-1.5
		l2.8-1.5l0,0l3-1.2l0,0l4-2l1.5-1.2l1.2-1l1-1l0.8-1l0.5-1v-1.2v-2l0,0l-0.2-1.5l-0.8-1.2l0,0l-0.5-0.5l-0.8-0.2l-1.2-0.2l0,0h-1
		l-0.8,0.2l-0.5,0.5l-0.5,0.8l0,0l-0.5,0.8l-0.5,1l-0.2,2.5v3.5h-14.5v-3.5l0,0v-2l0.2-1.8l0.5-1.8l0.5-1.5l0.8-1.5l0.8-1.2l1-1.2
		l1.2-1.6l0,0l1.2-1l1.5-0.8l1.5-0.8l1.5-0.5l2-0.5l1.8-0.5l4.2-0.2l0,0l4.8,0.2l2,0.5l1.8,0.2l1.8,0.8l1.5,0.8l1.4,0.8l1.2,1l0,0
		l1,1l0.8,1.2l0.8,1.5l0.8,1.8l0.5,1.8l0.2,1.8l0.2,4.5v43h-14.5L168.4,407.9L168.4,407.9z M167.6,382.5L167.6,382.5l-3.8,2.2
		l-1.2,1l-1,1l0,0l-0.5,1l-0.5,1.2l-0.2,1.5v1.5v6l0,0l0.2,2.8v1l0.2,0.8l0,0l0.5,0.5l0.5,0.2l0.5,0.2h0.8l0,0h1l1-0.5l0.8-0.5
		l0.5-1l0,0l0.8-1l0.2-1.2l0.2-1.5v-1.8V382.5L167.6,382.5z"/>
	<polygon class="st0" points="191.1,412.2 191.1,352.7 205.8,352.7 205.8,359.7 205.8,359.7 207.1,357.7 208.4,356.2 209.8,354.7 
		211.4,353.5 211.4,353.5 212.8,352.7 214.8,351.9 216.6,351.7 218.6,351.5 218.6,351.5 220.6,351.7 222.6,351.9 224.1,352.7 
		225.6,353.7 225.6,353.7 226.8,354.9 227.8,356.2 228.6,357.9 229.4,359.7 229.4,359.7 230.4,357.7 231.6,356.2 233.1,354.7 
		234.6,353.7 234.6,353.7 236.4,352.7 238.1,351.9 240.1,351.7 242.1,351.5 242.1,351.5 244.6,351.7 247.1,352.5 248.8,353.5 
		250.6,355.2 250.6,355.2 251.8,357.2 252.6,359.7 253.1,362.7 253.4,365.9 253.4,412.2 237.6,412.2 237.6,370.7 237.6,370.7 
		237.4,368.7 237.1,367.9 236.8,367.2 236.8,367.2 236.4,366.7 235.6,366.5 234.8,366.2 234.1,366.2 234.1,366.2 233.1,366.2 
		232.4,366.5 231.6,366.9 231.1,367.7 231.1,367.7 230.6,368.7 230.4,369.9 230.1,373.2 230.1,412.2 214.4,412.2 214.4,370.7 
		214.4,370.7 214.1,368.7 213.8,367.9 213.6,367.2 213.6,367.2 213.1,366.7 212.4,366.5 211.6,366.2 210.8,366.2 210.8,366.2 
		209.8,366.2 208.8,366.5 208.4,366.9 207.6,367.7 207.6,367.7 207.4,368.7 207.1,369.9 206.8,373.2 206.8,412.2 	"/>
	<path class="st0" d="M261.6,412.2v-74.5h21.8l0,0l4.5,0.2l4,0.8l1.8,0.5l1.8,0.8l1.5,0.8l1.2,1l0,0l1,1l1,1l1,1.2l0.8,1.2l0.5,1.5
		l0.2,1.8l0.2,1.8l0.2,1.8v5.6l0,0l-0.2,2.5l-0.5,2.5l-0.5,2l-1,1.8l0,0l-1,1.5l-1.5,1.5l-2,1.2l-2,1l0,0l2.5,1l2,1.2l1.8,1.2
		l1.5,1.8l0,0l1,1.8l0.8,2l0.5,2.5l0.1,2.5v6.5l0,0l-0.2,2.2l-0.2,2.2l-0.2,2l-0.8,2l-0.8,1.5l-0.8,1.8l-1.2,1.2l-1.2,1.2l0,0
		l-1.2,1l-1.8,1l-1.8,0.8l-2,0.8l-2,0.5l-2.5,0.2l-2.5,0.2l-2.8,0.2h-21V412.2z M278.1,367.5L278.1,367.5l2.2-0.2l2-0.2l1.5-0.5
		l1.2-0.5l0,0l0.8-1l0.5-1l0.5-1.5v-1.9v-4.5l0,0v-1.5l-0.5-1.2l-0.5-1l-0.8-0.8l0,0l-1.2-0.5l-1.5-0.5l-2-0.2h-2.2V367.5
		L278.1,367.5z M278.1,399.7L278.1,399.7l2.8-0.2l2-0.2l1.7-0.6l1.2-0.8l0,0l0.8-1l0.8-1.2l0.2-1.8l0.2-2v-5l0,0l-0.2-2l-0.2-1.8
		l-0.8-1.2l-1-1l0,0l-1.2-0.8l-1.5-0.5l-2.2-0.5h-2.5L278.1,399.7L278.1,399.7z"/>
	<polygon class="st0" points="349.6,352.7 349.6,412.2 334.8,412.2 334.8,404.9 334.8,404.9 333.6,406.9 332.4,408.5 331.1,409.9 
		329.6,411.2 329.6,411.2 327.8,411.9 326.1,412.7 324.4,413.2 322.4,413.2 322.4,413.2 319.8,412.9 317.4,412.2 315.6,411.2 
		313.8,409.5 313.8,409.5 312.6,407.5 311.8,404.9 311.1,401.9 311.1,398.5 311.1,352.7 326.8,352.7 326.8,393.9 326.8,393.9 
		327.1,395.9 327.4,396.7 327.6,397.2 327.6,397.2 328.1,397.7 328.6,398.2 329.4,398.5 330.1,398.5 330.1,398.5 331.1,398.5 
		331.8,397.9 332.6,397.7 333.1,396.9 333.1,396.9 333.4,395.9 333.8,394.7 333.8,391.5 333.8,352.7 	"/>
	<polygon class="st0" points="377.8,400.9 377.8,412.7 377.8,412.7 374.8,412.9 374.8,412.9 371.6,413.2 371.6,413.2 368.1,412.9 
		365.1,412.5 363.8,411.9 362.8,411.5 361.8,410.7 361.1,409.9 361.1,409.9 360.4,408.9 359.8,407.9 359.4,406.5 358.8,404.7 
		358.4,400.7 358.1,395.7 358.1,364.9 354.4,364.9 354.4,353.7 358.1,353.7 358.1,341.2 373.6,341.2 373.6,353.7 377.8,353.7 
		377.8,364.9 373.4,364.9 373.4,397.7 373.4,397.7 373.6,399.2 373.8,399.7 374.4,400.2 374.4,400.2 375.6,400.7 377.4,400.9 	"/>
	<path class="st0" d="M383.1,349.2v-11.5h15.8v11.5H383.1L383.1,349.2z M383.1,412.2v-59.5h15.8v59.5H383.1L383.1,412.2z"/>
	<polygon class="st0" points="407.1,412.2 407.1,337.7 422.6,337.7 422.6,378.7 431.4,352.7 447.6,352.7 437.8,378.2 447.8,412.2 
		431.6,412.2 422.6,379.7 422.6,412.2 	"/>
	<path class="st0" d="M465.8,396.9L465.8,396.9l0.2,2.2l0.2,0.8l0.4,0.8l0,0l0.5,0.5l0.8,0.2l0.7,0.3h0.8l0,0h1l0.8-0.2l0.5-0.2
		l0.5-0.5l0,0l0.2-0.8l0.5-0.8V397v-7h16v4.7l0,0v2.2l-0.2,2l-0.5,2l-0.6,1.8l-0.5,1.8l-1,1.5l-1,1.5l-1,1.2l0,0l-1.2,1l-1.5,1
		l-1.8,0.8l-1.8,0.5l-1.8,0.5l-2,0.5l-2.2,0.2h-2.5l0,0h-2.2l-2.2-0.2l-2-0.2l-2-0.8l-1.8-0.5l-1.5-0.8l-1.5-1l-1.2-1l0,0l-1.2-1.2
		l-1-1.5l-0.8-1.5l-0.8-1.5l-0.5-2l-0.2-2l-0.2-2v-2.3v-24.8l0,0v-2.2l0.2-2l0.2-2l0.5-1.8l0.8-1.8l0.7-1.4l1-1.2l1.2-1.2l0,0
		l1.2-1.2l1.5-0.8l1.5-1l1.8-0.5l2-0.5l2-0.5h2.2l2.2-0.2l0,0l2.5,0.2h2.2l2,0.5l1.8,0.5l1.8,0.5l1.8,1l1.5,0.8l1.2,1.2l0,0l1,1.2
		l1,1.2l1,1.5l0.5,1.8l0.5,1.8l0.5,2l0.2,2v2.2v15h-23L465.8,396.9L465.8,396.9z M465.8,367.9v6.2h7v-6.2l0,0v-2.2l-0.5-1l-0.2-0.5
		l0,0l-0.5-0.5l-0.5-0.5l-0.8-0.2h-1l0,0h-0.7l-0.8,0.2l-0.8,0.5l-0.5,0.5l0,0l-0.2,0.5l-0.2,1L465.8,367.9L465.8,367.9L465.8,367.9
		z"/>
	<polygon class="st0" points="496.1,412.2 496.1,352.7 510.8,352.7 510.8,359.7 510.8,359.7 511.8,357.7 513.1,356.2 514.6,354.7 
		516.1,353.7 516.1,353.7 517.8,352.7 519.6,351.9 521.4,351.7 523.1,351.5 523.1,351.5 525.8,351.7 528.1,352.5 530.1,353.5 
		531.6,355.2 531.6,355.2 532.8,357.2 533.8,359.7 534.4,362.7 534.6,365.9 534.6,412.2 518.8,412.2 518.8,370.7 518.8,370.7 
		518.6,368.7 518.1,367.5 518.1,367.5 517.6,366.7 517.1,366.5 516.4,366.2 515.6,366.2 515.6,366.2 514.6,366.2 513.8,366.5 
		513.1,366.9 512.6,367.7 512.6,367.7 512.1,368.7 511.8,369.9 511.6,373.2 511.6,412.2 	"/>
	<polygon class="st0" points="424.6,438.5 424.6,438.5 424.4,436.7 423.8,435.5 423.8,435.5 423.6,434.9 423.1,434.7 421.6,434.5 
		421.6,434.5 420.4,434.7 419.8,434.9 419.4,435.5 419.4,435.5 418.8,436.7 418.6,438.5 418.6,462.9 418.6,462.9 418.8,464.9 
		419.4,466.2 419.4,466.2 419.8,466.7 420.4,466.9 421.6,467.2 421.6,467.2 423.1,466.9 423.6,466.7 423.8,466.2 423.8,466.2 
		424.4,464.9 424.6,462.9 424.6,454.5 438.1,454.5 438.1,461.2 438.1,461.2 437.8,464.7 437.4,466.5 437.1,467.9 436.4,469.5 
		435.8,470.7 434.8,471.7 433.8,472.9 433.8,472.9 432.8,473.7 431.6,474.5 430.4,475.2 428.8,475.7 425.6,476.5 421.6,476.7 
		421.6,476.7 417.8,476.5 414.4,475.7 413.1,475.2 411.6,474.5 410.4,473.7 409.4,472.9 409.4,472.9 408.4,471.7 407.6,470.7 
		406.8,469.5 406.4,467.9 405.8,466.5 405.6,464.7 405.4,461.2 405.4,440.5 405.4,440.5 405.6,436.7 405.8,434.9 406.4,433.5 
		406.8,432.2 407.6,430.9 408.4,429.7 409.4,428.7 409.4,428.7 410.4,427.7 411.6,426.9 413.1,426.2 414.4,425.7 417.8,424.9 
		421.6,424.7 421.6,424.7 425.6,424.9 428.8,425.7 430.4,426.2 431.6,426.9 432.8,427.7 433.8,428.7 433.8,428.7 434.8,429.7 
		435.8,430.9 436.4,432.2 437.1,433.5 437.4,434.9 437.8,436.7 438.1,440.5 438.1,444.7 424.6,444.7 	"/>
	<path class="st0" d="M443.4,440.5L443.4,440.5l0.2-3.8l0.5-1.8l0.2-1.5l0.8-1.2l0.5-1.2l1-1.2l0.8-1l0,0l1.2-1l1.2-0.8l1.2-0.8
		l1.6-0.5l3.2-0.8l4-0.2l0,0l3.8,0.2l3.2,0.8l1.5,0.5l1.5,0.8l1,0.8l1.2,1l0,0l1,1l0.8,1.2l0.8,1.2l0.5,1.2l0.5,1.5l0.2,1.8l0.2,3.8
		v20.8l0,0l-0.2,3.5l-0.2,1.8l-0.5,1.5l-0.5,1.5l-0.8,1.2l-0.8,1l-1,1.2l0,0l-1.2,0.8l-1,0.8l-1.5,0.8l-1.5,0.5l-3.2,0.8l-3.8,0.2
		l0,0l-4-0.2l-3.2-1l-1.5-0.5l-1.2-0.8l-1.3-0.7l-1.2-0.8l0,0l-0.8-1.2l-1-1l-0.5-1.2l-0.8-1.5l-0.2-1.5l-0.5-1.8l-0.2-3.5
		L443.4,440.5L443.4,440.5z M462.6,462.9v-24.5l0,0v-1.7l-0.5-1.2l0,0l-0.5-0.5l-0.5-0.2l-1.2-0.2l0,0l-1.5,0.2l-0.5,0.2l-0.5,0.5
		l0,0l-0.5,1.2v1.8V463l0,0v2l0.5,1.2l0,0l0.5,0.5l0.5,0.2l1.5,0.2l0,0l1.2-0.2l0.5-0.2l0.5-0.5l0,0l0.5-1.2V462.9L462.6,462.9
		L462.6,462.9z"/>
	<polygon class="st0" points="482.1,475.7 482.1,425.7 494.6,425.7 494.6,431.7 494.6,431.7 495.6,429.9 496.6,428.7 497.8,427.5 
		499.1,426.5 499.1,426.5 500.6,425.7 502.1,425.2 503.6,424.9 505.4,424.7 505.4,424.7 507.1,424.9 508.6,425.2 510.1,425.7 
		511.4,426.7 511.4,426.7 512.4,427.7 513.1,428.7 513.8,430.2 514.1,431.7 514.1,431.7 515.1,429.9 516.4,428.7 517.4,427.5 
		518.8,426.5 518.8,426.5 520.1,425.7 521.6,425.2 523.4,424.9 524.8,424.7 524.8,424.7 527.1,424.9 529.1,425.5 530.8,426.5 
		532.1,427.7 532.1,427.7 533.1,429.5 533.8,431.7 534.4,434.2 534.6,436.9 534.6,475.7 521.4,475.7 521.4,440.9 521.4,440.9 
		521.1,439.2 520.6,438.2 520.6,438.2 520.1,437.7 519.6,437.5 518.4,437.2 518.4,437.2 517.6,437.2 516.8,437.5 516.1,437.9 
		515.6,438.5 515.6,438.5 515.4,439.2 515.1,440.2 514.8,442.9 514.8,475.7 501.6,475.7 501.6,440.9 501.6,440.9 501.6,439.2 
		500.8,438.2 500.8,438.2 500.6,437.7 500.1,437.5 498.8,437.2 498.8,437.2 497.8,437.2 497.1,437.5 496.6,437.9 496.1,438.5 
		496.1,438.5 495.8,439.2 495.6,440.2 495.4,442.9 495.4,475.7 	"/>
	<polygon class="st0" points="-5.6,441.7 -5.6,456.7 -19.4,456.7 -19.4,441.7 	"/>
	<polygon class="st0" points="11.6,441.7 11.6,456.7 -2.2,456.7 -2.2,441.7 	"/>
	<polygon class="st0" points="28.8,441.7 28.8,456.7 14.8,456.7 14.8,441.7 	"/>
	<polygon class="st0" points="46.1,441.7 46.1,456.7 32.1,456.7 32.1,441.7 	"/>
	<polygon class="st0" points="63.1,441.7 63.1,456.7 49.4,456.7 49.4,441.7 	"/>
	<polygon class="st0" points="80.4,441.7 80.4,456.7 66.6,456.7 66.6,441.7 	"/>
	<polygon class="st0" points="97.6,441.7 97.6,456.7 83.6,456.7 83.6,441.7 	"/>
	<polygon class="st0" points="114.8,441.7 114.8,456.7 100.8,456.7 100.8,441.7 	"/>
	<polygon class="st0" points="131.8,441.7 131.8,456.7 118.1,456.7 118.1,441.7 	"/>
	<polygon class="st0" points="149.1,441.7 149.1,456.7 135.1,456.7 135.1,441.7 	"/>
	<polygon class="st0" points="166.4,441.7 166.4,456.7 152.4,456.7 152.4,441.7 	"/>
	<polygon class="st0" points="183.4,441.7 183.4,456.7 169.6,456.7 169.6,441.7 	"/>
	<polygon class="st0" points="200.6,441.7 200.6,456.7 186.8,456.7 186.8,441.7 	"/>
	<polygon class="st0" points="217.8,441.7 217.8,456.7 203.8,456.7 203.8,441.7 	"/>
	<polygon class="st0" points="235.1,441.7 235.1,456.7 221.1,456.7 221.1,441.7 	"/>
	<polygon class="st0" points="252.1,441.7 252.1,456.7 238.4,456.7 238.4,441.7 	"/>
	<polygon class="st0" points="269.4,441.7 269.4,456.7 255.6,456.7 255.6,441.7 	"/>
	<polygon class="st0" points="286.6,441.7 286.6,456.7 272.6,456.7 272.6,441.7 	"/>
	<polygon class="st0" points="303.6,441.7 303.6,456.7 289.8,456.7 289.8,441.7 	"/>
	<polygon class="st0" points="320.8,441.7 320.8,456.7 307.1,456.7 307.1,441.7 	"/>
	<polygon class="st0" points="338.1,441.7 338.1,456.7 324.1,456.7 324.1,441.7 	"/>
	<polygon class="st0" points="355.4,441.7 355.4,456.7 341.4,456.7 341.4,441.7 	"/>
	<polygon class="st0" points="372.4,441.7 372.4,456.7 358.6,456.7 358.6,441.7 	"/>
	<polygon class="st0" points="389.6,441.7 389.6,456.7 375.8,456.7 375.8,441.7 	"/>
	<polygon class="st0" points="5.1,477.9 5.1,477.9 5.1,478.7 4.6,479.9 4.6,479.9 4.1,480.9 4.1,480.9 3.6,481.7 3.6,481.7 
		1.8,483.7 -0.6,485.7 -0.6,485.7 -3.4,487.5 -6.4,489.2 -6.4,489.2 -10.2,490.9 -10.2,490.9 -14.2,492.2 -14.2,492.2 -14.2,492.9 
		-14.2,493.7 -14.2,493.7 -14.2,494.9 -14.2,494.9 -13.9,497.2 -13.9,497.2 -13.9,499.5 -13.9,499.5 -13.9,501.2 -13.9,501.2 
		-13.9,501.9 -14.2,502.5 -14.2,502.5 -14.6,502.7 -15.4,502.7 -15.4,502.7 -15.9,502.7 -16.2,502.2 -16.6,501.5 -16.9,500.7 
		-17.2,497.9 -17.4,494.2 -17.4,493.7 -17.4,493.7 -17.2,491.5 -17.2,491.5 -16.9,488.5 -16.9,488.5 -16.6,487.5 -16.6,487.5 
		-16.4,486.2 -16.4,486.2 -16.2,484.2 -16.2,484.2 -15.6,482.5 -15.6,482.5 -15.6,481.7 -15.6,481.7 -15.4,480.9 -15.4,480.9 
		-15.2,479.5 -15.2,479.5 -14.6,478.5 -14.6,478.5 -13.9,477.2 -13.9,477.2 -13.2,477.2 -13.2,477.2 -12.6,477.2 -12.2,477.7 
		-12.2,477.7 -11.9,477.9 -11.9,478.7 -11.9,478.7 -11.9,479.2 -11.9,479.2 -12.4,480.2 -12.4,480.2 -12.6,481.2 -12.6,481.2 
		-12.9,481.7 -12.9,481.7 -13.2,482.9 -13.2,482.9 -13.2,483.9 -13.2,483.9 -13.4,485.2 -13.4,485.2 -13.6,486.2 -13.6,486.2 
		-13.9,487.5 -13.9,487.5 -13.9,488.5 -13.9,488.5 -13.9,489.5 -13.9,489.5 -12.6,488.7 -12.6,488.7 -10.6,487.9 -10.6,487.9 
		-6.9,486.2 -6.9,486.2 -3.6,484.5 -3.6,484.5 -1.4,482.9 -1.4,482.9 0.4,481.2 0.4,481.2 1.4,480.5 1.8,479.5 2.1,478.7 2.4,477.7 
		2.4,477.7 2.1,477.5 1.8,476.9 0.8,476.7 0.8,476.7 -0.6,476.2 -0.6,476.2 -2.2,476.2 -2.2,476.2 -3.6,475.9 -3.6,475.9 
		-4.9,475.9 -4.9,475.9 -8.6,476.2 -12.4,476.7 -12.4,476.7 -14.9,477.5 -17.9,478.5 -17.9,478.5 -18.6,478.5 -18.6,478.5 
		-19.4,478.2 -19.4,478.2 -19.4,477.9 -19.6,477.7 -19.6,477.7 -19.4,476.9 -19.2,476.2 -19.2,476.2 -18.4,475.7 -17.6,475.2 
		-17.6,475.2 -14.4,474.5 -14.4,474.5 -12.2,473.9 -12.2,473.9 -9.9,473.7 -9.9,473.7 -6.4,473.5 -6.4,473.5 -4.4,473.5 -4.4,473.5 
		-2.6,473.5 -2.6,473.5 -0.9,473.7 -0.9,473.7 0.8,473.9 0.8,473.9 2.6,474.7 3.8,475.5 3.8,475.5 4.4,475.9 4.8,476.5 5.1,477.2 	
		"/>
	<path class="st0" d="M34.6,488.2L34.6,488.2v0.5l0,0l-0.2,0.5l0,0l-0.2,0.8l0,0l-0.2,0.2l0,0l-0.4,0.5l0,0l-0.5,0.5l0,0l-0.5,0.5
		l0,0l-0.8,0.8l0,0l-2,2l0,0l-2.2,1.8l0,0l-1.2,0.5l-1.2,0.8l0,0l-1.2,0.2h-1.5l0,0l-1.2-0.2l0,0l-1.2-0.8l0,0l-1-1l0,0l-0.8-1.2
		l0,0l-1,1l0,0l-1.2,1.2l0,0l-1.2,1l0,0l-1.5,1.2l0,0l-0.8,0.5l0,0l-1.2,0.5l0,0l-1.2,0.2l0,0l-1,0.2l0,0H8.4l-0.5-0.5l0,0l-1-1l0,0
		l-0.5-1.5l0,0l-0.2-1.5l0,0v-1l0.5-1.2l0,0l0.8-2.5l0,0l1.2-2.2l0,0l1.2-2l0,0l1.8-1.8l0,0l2-1.5l0,0l2-1l0,0l0.8-0.2l1-0.2l0,0
		h0.8l0,0h0.3l0,0l1,0.2l0,0l0.5,0.2l0,0l0.5,0.5l0,0l0.5,0.8l0,0l0.2,0.8l0,0v0.5l0,0l-0.2,1.5l0,0l-0.5,2.5l0,0l-0.2,2l0,0
		l0.2,1.2l0,0l0.5,1.2l0,0l1,0.8l0,0l0.5,0.2h0.8l0,0h1l1.2-0.2l0,0l1-0.8l1.2-0.5l0,0l2.5-2l0,0l2.2-2.2l0,0l0.2-0.2l0,0l0.5-0.8
		l0,0l0.5-0.2l0,0l0.2-0.2l0,0h0.7V488.2L34.6,488.2L34.6,488.2z M18.4,486.7L18.4,486.7v-0.8l0,0l-0.2-0.8l0,0l-0.2-0.2h-0.4l0,0
		h-0.5l0,0h-1.2l0,0l-1.3,0.8l0,0l-1,0.8l0,0l-1,1l0,0l-0.8,1l0,0l-1,1.2l0,0l-0.8,1.5l0,0L9.2,493l0,0l-0.5,1.5l0,0l-0.1,1.2l0,0
		v0.5l0,0l0.2,0.5l0,0l0.2,0.5l0,0l0.5,0.2l0,0h0.8l1.2-0.5l0,0l1.5-0.8l1.5-1.2l0,0l1.2-1.2l1.2-1.5l0,0l0.7-1.5l0.5-1.2l0.2-1.5
		L18.4,486.7L18.4,486.7L18.4,486.7z M22.1,475.9L22.1,475.9v0.8l-0.5,1l0,0l-0.5,0.8l-0.5,0.8l0,0l-0.8,0.5l-1,0.5l0,0l-0.8,0.2h-1
		l0,0h-0.8l-0.8-0.2l-0.8-0.2l-0.8-0.5l0,0l-0.2-0.9l-0.2-0.5l-0.2-1v-0.8l0,0v-0.5l0.2-0.8l0,0l0.8-1.2l0,0l1-1l0,0l1.2-0.5l0,0
		l2.2-0.5l0,0l0.5,0.2l0.8,0.2l0,0l1.2,0.8l0,0l0.8,1.2l0,0L22.1,475.9L22.1,475.9L22.1,475.9z M19.8,476.2L19.8,476.2l-0.2-1l0,0
		l-0.5-0.8l0,0l-0.5-0.2l0,0h-0.8l0,0h-0.2l0,0h-0.2l0,0h-0.2l0,0H17l0,0l-0.5,0.2l0,0l-0.5,0.8l0,0l-0.2,0.8l0,0l-0.2,0.5l0,0
		l0.2,0.8l0.5,0.8l0,0l0.3,0.6h0.8l0,0l0.8-0.2l0,0l0.8-0.2l0,0l0.8-0.8L19.8,476.2L19.8,476.2L19.8,476.2z"/>
	<polygon class="st0" points="47.8,495.2 47.8,495.2 48.4,492.9 48.4,492.9 48.8,490.2 48.8,490.2 49.6,486.9 49.6,486.9 
		50.1,483.7 50.1,483.7 50.6,480.7 50.6,480.7 50.8,478.5 50.8,478.5 50.8,477.7 50.8,477.7 50.8,476.9 50.8,476.9 51.1,475.9 
		51.1,475.9 51.8,475.5 51.8,475.5 52.6,475.2 53.1,475.2 53.1,475.2 54.1,475.5 54.1,475.5 54.4,475.9 54.4,475.9 54.6,476.7 
		54.6,476.7 54.8,477.7 54.8,477.7 55.1,478.5 55.1,478.5 55.8,480.5 55.8,480.5 57.1,483.2 57.1,483.2 59.1,486.5 59.1,486.5 
		61.1,489.7 61.1,489.7 63.6,492.9 63.6,492.9 65.8,495.9 65.8,495.9 66.8,492.5 66.8,492.5 67.4,489.2 67.4,489.2 67.8,485.7 
		67.8,485.7 68.6,482.5 68.6,482.5 68.8,480.5 68.8,480.5 69.1,478.2 69.1,478.2 69.4,476.2 69.4,476.2 69.6,474.2 69.6,474.2 
		69.6,473.7 69.6,473.7 69.6,473.2 69.6,473.2 69.6,472.5 69.6,472.5 69.8,472.2 69.8,472.2 70.6,471.7 71.1,471.5 71.1,471.5 
		72.1,471.5 72.1,471.5 72.6,471.7 72.6,471.7 72.8,472.2 72.8,472.2 73.1,473.2 73.1,473.2 73.4,473.7 73.4,473.7 73.1,474.7 
		73.1,474.7 72.8,475.7 72.8,475.7 72.6,476.9 72.6,476.9 72.4,477.7 72.4,477.7 71.6,481.5 71.6,481.5 70.8,485.5 70.8,485.5 
		70.1,489.5 70.1,489.5 69.4,492.9 69.4,492.9 69.1,495.5 69.1,495.5 68.8,496.7 68.8,496.7 68.8,497.5 68.8,497.5 68.8,497.9 
		68.8,497.9 68.8,498.7 68.8,498.7 68.8,499.2 68.8,499.2 68.8,499.9 68.8,499.9 68.6,500.5 68.6,500.5 68.1,500.7 68.1,500.7 
		67.8,500.9 67.8,500.9 67.1,501.2 67.1,501.2 66.6,501.2 66.6,501.2 66.1,501.2 66.1,501.2 65.6,500.9 65.6,500.9 64.4,499.7 
		64.4,499.7 63.8,498.5 63.8,498.5 63.6,497.9 63.6,497.9 63.4,497.5 63.4,497.5 63.1,496.9 63.1,496.9 62.8,496.7 62.8,496.7 
		60.4,493.5 60.4,493.5 58.1,490.2 58.1,490.2 55.8,486.5 55.8,486.5 53.4,481.9 53.4,481.9 52.4,485.9 52.4,485.9 51.8,489.9 
		51.8,489.9 51.1,493.7 51.1,493.7 50.6,496.7 50.6,496.7 50.6,497.7 50.6,497.7 50.6,498.7 50.6,498.7 50.6,499.7 50.6,499.7 
		50.4,500.5 50.4,500.5 50.1,500.9 50.1,500.9 49.8,501.5 49.8,501.5 49.4,501.9 49.4,501.9 48.6,501.9 48.6,501.9 47.8,501.9 
		47.8,501.9 47.4,501.5 47.4,501.5 47.1,500.7 47.1,500.7 47.1,499.5 47.1,499.5 47.1,498.7 47.1,498.7 47.4,497.7 47.4,497.7 
		47.6,496.5 47.6,496.5 	"/>
	<path class="st0" d="M104.8,488.2L104.8,488.2v0.5l0,0l-0.2,0.5l0,0v0.8l0,0l-0.2,0.2l0,0l-0.5,0.5l0,0l-0.5,0.5l0,0l-0.5,0.5l0,0
		l-0.5,0.8l0,0l-2.2,2l0,0l-2.2,1.8l0,0l-1.4,0.4l-1.2,0.8l0,0l-1.2,0.2H93l0,0l-1.5-0.2l0,0l-1.2-0.8l0,0l-1-1l0,0l-0.5-1.2l0,0
		l-1.2,1l0,0l-1.2,1.2l0,0l-1.2,1l0,0l-1.2,1.2l0,0l-1,0.5l0,0l-1.2,0.5l0,0l-1.2,0.2l0,0l-1,0.2l0,0h-0.8l-0.5-0.5l0,0l-1-1l0,0
		l-0.5-1.5l0,0l-0.2-1.5l0,0l0.2-1l-0.2-1.1l0,0l0.8-2.5l0,0l1.2-2.2l0,0l1.5-2l0,0l1.5-1.8l0,0l2-1.5l0,0l2-1l0,0l1-0.2l0.8-0.2
		l0,0h0.8l0,0h1l0,0l0.8,0.2l0,0l0.8,0.2l0,0l0.2,0.5l0,0l0.5,0.8l0,0l0.2,0.8l0,0l0.2,0.5l0,0l-0.3,1.4l0,0l-0.8,2.5l0,0v2l0,0v1.2
		l0,0l0.8,1.2l0,0l0.8,0.8l0,0l0.5,0.2h0.8l0,0h1.2l1-0.2l0,0l1.2-0.8l1-0.5l0,0l2.5-2l0,0l2.2-2.2l0,0l0.5-0.2l0,0l0.2-0.8l0,0
		l0.5-0.2l0,0l0.5-0.2l0,0h0.2v0.7L104.8,488.2L104.8,488.2z M88.8,486.7L88.8,486.7v-0.8l0,0l-0.2-0.8l0,0l-0.2-0.2h-0.2l0,0h-0.8
		l0,0h-1.2l0,0l-1,0.8l0,0l-1.2,0.8l0,0l-1,1l0,0l-0.8,1l0,0l-1,1.2l0,0l-0.8,1.5l0,0l-0.8,1.8l0,0l-0.5,1.5l0,0l-0.2,1.2l0,0v0.5
		l0,0l0.2,0.5l0,0l0.2,0.5l0,0l0.5,0.2l0,0h1l1-0.5l0,0l1.8-0.8l1.5-1.2l0,0l1.2-1.2l1-1.5l0,0l0.5-1.5l0.5-1.2l0.2-1.5L88.8,486.7
		L88.8,486.7L88.8,486.7z M86.1,478.2L86.1,478.2l-0.2,0.2l-0.3,0.3l-1.2,0.2l0,0l-1-0.2l0,0l-0.5-0.2l-0.2-0.5l0,0v-0.8l0,0
		l0.2-0.5l0,0l0.2-0.5l0,0l0.8-0.2l0,0l0.8,0.2l0.8,0.5l0,0l0.5,0.5L86.1,478.2L86.1,478.2L86.1,478.2z M92.8,476.7L92.8,476.7
		l-0.2,0.8l-0.2,0.5l-0.5,0.2l-0.8,0.2l0,0l-0.8-0.2l-0.2-0.2l0,0l-0.5-0.5V477l0,0v-0.8l0.2-0.2l0,0l1.5-0.5l0,0l0.5-0.2l0,0
		l0.5,0.2l0.2,0.2l0,0L92.8,476.7L92.8,476.7L92.8,476.7z"/>
	<polygon class="st0" points="121.4,484.5 121.4,484.5 121.4,485.2 121.1,485.5 121.1,485.5 120.1,486.2 120.1,486.2 118.8,486.7 
		118.8,486.7 117.4,486.9 117.4,486.9 115.8,487.2 115.8,487.2 114.4,487.5 114.4,487.5 112.6,487.7 112.6,487.7 111.1,487.7 
		111.1,487.7 109.6,487.9 109.6,487.9 108.4,488.2 108.4,488.2 107.6,491.5 107.6,491.5 106.8,494.5 106.8,494.5 106.8,495.5 
		106.8,495.5 106.6,496.9 106.6,496.9 106.4,498.2 106.4,498.2 106.4,499.2 106.4,499.2 106.4,499.9 106.4,500.5 106.4,500.5 
		107.1,500.9 107.1,500.9 107.6,501.5 107.6,501.5 107.8,501.9 107.8,501.9 107.6,502.5 107.6,502.5 106.8,502.9 106.8,502.9 
		106.1,503.2 106.1,503.2 105.6,503.2 105.6,503.2 105.1,503.2 104.6,502.9 104.6,502.9 103.8,502.2 103.8,502.2 103.4,501.2 
		103.4,501.2 103.1,499.9 103.1,499.9 103.4,498.2 103.4,498.2 103.8,496.2 103.8,496.2 104.1,494.2 104.1,494.2 104.6,492.2 
		104.6,492.2 104.8,491.2 104.8,491.2 105.1,490.2 105.1,490.2 105.1,489.7 105.1,489.7 105.1,489.2 105.1,489.2 105.1,488.9 
		105.1,488.9 104.6,488.7 104.6,488.7 103.8,488.7 103.8,488.7 102.8,488.7 102.8,488.7 102.1,488.9 102.1,488.9 101.4,488.9 
		101.4,488.9 100.4,488.9 100.4,488.9 99.6,488.5 99.6,488.5 99.1,487.9 99.1,487.9 99.1,486.9 99.1,486.9 99.4,486.5 99.4,486.5 
		99.8,486.5 99.8,486.5 100.6,486.2 100.6,486.2 101.1,486.2 101.1,486.2 101.8,486.2 101.8,486.2 103.1,486.2 103.1,486.2 
		104.1,485.9 104.1,485.9 105.1,485.9 105.1,485.9 105.4,485.9 105.4,485.9 105.6,485.9 105.6,485.9 105.8,485.7 105.8,485.7 
		106.1,484.9 106.1,484.9 106.4,483.7 106.4,483.7 106.6,482.2 106.6,482.2 107.1,480.7 107.1,480.7 107.4,479.5 107.4,479.5 
		107.6,478.2 107.6,478.2 107.8,477.2 107.8,477.2 108.1,475.9 108.1,475.9 108.4,474.9 108.4,474.9 108.8,474.5 109.8,474.2 
		109.8,474.2 110.4,474.2 110.8,474.5 111.1,474.9 111.1,475.7 111.1,475.7 111.1,476.7 110.6,477.7 110.6,477.7 109.4,482.2 
		109.4,482.2 109.1,484.7 109.1,484.7 109.1,485.2 109.6,485.2 109.6,485.2 111.1,485.2 111.1,485.2 112.6,485.2 112.6,485.2 
		114.1,484.9 114.1,484.9 116.1,484.9 116.1,484.9 117.4,484.7 117.4,484.7 118.6,484.5 118.6,484.5 119.6,484.2 119.6,484.2 
		120.4,483.9 120.4,483.9 120.8,483.9 120.8,483.9 121.1,483.9 121.1,483.9 121.4,484.2 121.4,484.2 	"/>
	<path class="st0" d="M138.6,487.9L138.6,487.9l-0.5,1l0,0l-2,2.8l0,0l-2.5,2.5l0,0l-2.8,2.2l0,0l-3,2l0,0l-1.5,0.5l-1.2,0.5l0,0
		l-1.5,0.5h-1.5l0,0l-1.2-0.2l-1.2-0.2l-1-0.5l-1-0.8l0,0l-0.5-1l-0.5-1l-0.5-1.5v-1.5l0,0l0.2-2.8l0.8-2.8l0,0l0.5-1.5l0.5-1.2
		l2-2.5l0,0l0.8-0.8l0,0l1-0.8l0,0l1.2-0.5l0,0l1.2-0.2l0,0h0.2l0,0l0.5,0.2l0,0l0.8,0.2l0,0l0.2,0.2l0,0l1,1.2l0,0l0.2,1.2l0,0
		l-0.2,1.8l0,0l-0.8,1.5l0,0l-1.2,1.8l0,0l-2.2,2l0,0l-1.8,1.5l0,0l-2.2,1.5l0,0l0.2,1.8l0.2,0.5l0.5,0.5l0,0l1.2,0.8l1.8,0.2l0,0
		l2-0.2l0,0l2.2-0.8l0,0l1.8-1l0,0l2-1.2l0,0l2.8-2.2l0,0l2.5-2.2l1-1l0,0l0.8-0.8h0.5l0,0l0,0L138.6,487.9L138.6,487.9L138.6,487.9
		z M124.6,484.5L124.6,484.5v-0.8l0,0l-0.2-0.2l0,0l-0.2-0.5l0,0h-0.6l0,0l-0.8,0.2l-1,1l0,0l-1,1.2l-1,1.5l0,0l-0.2,1l0,0l-0.2,1
		l0,0l-0.2,1l0,0l-0.2,1l0,0l1.8-1.5l0,0l1.5-1l0,0l1-1l0,0l0.8-1l0,0l0.5-1l0,0L124.6,484.5L124.6,484.5L124.6,484.5z"/>
	<polygon class="st0" points="154.8,484.5 154.8,484.5 154.6,485.2 154.4,485.5 154.4,485.5 153.6,486.2 153.6,486.2 152.4,486.7 
		152.4,486.7 150.8,486.9 150.8,486.9 149.1,487.2 149.1,487.2 147.6,487.5 147.6,487.5 146.1,487.7 146.1,487.7 144.4,487.7 
		144.4,487.7 142.8,487.9 142.8,487.9 141.8,488.2 141.8,488.2 141.1,491.5 141.1,491.5 140.4,494.5 140.4,494.5 140.1,495.5 
		140.1,495.5 139.8,496.9 139.8,496.9 139.8,498.2 139.8,498.2 139.6,499.2 139.6,499.2 139.6,499.9 139.8,500.5 139.8,500.5 
		140.4,500.9 140.4,500.9 140.8,501.5 140.8,501.5 141.1,501.9 141.1,501.9 140.8,502.5 140.8,502.5 140.4,502.9 140.4,502.9 
		139.6,503.2 139.6,503.2 138.8,503.2 138.8,503.2 138.4,503.2 137.8,502.9 137.8,502.9 137.4,502.2 137.4,502.2 136.8,501.2 
		136.8,501.2 136.6,499.9 136.6,499.9 136.8,498.2 136.8,498.2 137.1,496.2 137.1,496.2 137.6,494.2 137.6,494.2 138.1,492.2 
		138.1,492.2 138.4,491.2 138.4,491.2 138.4,490.2 138.4,490.2 138.6,489.7 138.6,489.7 138.6,489.2 138.6,489.2 138.4,488.9 
		138.4,488.9 137.8,488.7 137.8,488.7 137.4,488.7 137.4,488.7 136.4,488.7 136.4,488.7 135.4,488.9 135.4,488.9 134.8,488.9 
		134.8,488.9 133.6,488.9 133.6,488.9 132.8,488.5 132.8,488.5 132.6,487.9 132.6,487.9 132.4,486.9 132.4,486.9 132.6,486.5 
		132.6,486.5 133.1,486.5 133.1,486.5 133.8,486.2 133.8,486.2 134.6,486.2 134.6,486.2 135.4,486.2 135.4,486.2 136.6,486.2 
		136.6,486.2 137.6,485.9 137.6,485.9 138.4,485.9 138.4,485.9 138.6,485.9 138.6,485.9 138.8,485.9 138.8,485.9 139.4,485.7 
		139.4,485.7 139.4,484.9 139.4,484.9 139.8,483.7 139.8,483.7 140.1,482.2 140.1,482.2 140.6,480.7 140.6,480.7 140.8,479.5 
		140.8,479.5 141.1,478.2 141.1,478.2 141.4,477.2 141.4,477.2 141.6,475.9 141.6,475.9 141.8,474.9 141.8,474.9 142.4,474.5 
		143.1,474.2 143.1,474.2 143.8,474.2 144.1,474.5 144.4,474.9 144.6,475.7 144.6,475.7 144.4,476.7 144.1,477.7 144.1,477.7 
		142.8,482.2 142.8,482.2 142.4,484.7 142.4,484.7 142.6,485.2 143.1,485.2 143.1,485.2 144.6,485.2 144.6,485.2 146.1,485.2 
		146.1,485.2 147.6,484.9 147.6,484.9 149.4,484.9 149.4,484.9 150.8,484.7 150.8,484.7 152.1,484.5 152.1,484.5 153.1,484.2 
		153.1,484.2 153.8,483.9 153.8,483.9 154.1,483.9 154.1,483.9 154.4,483.9 154.4,483.9 154.6,484.2 154.6,484.2 	"/>
	<polygon class="st0" points="183.4,487.5 183.4,487.5 183.1,487.9 183.1,487.9 182.8,488.7 182.8,488.7 182.1,489.5 182.1,489.5 
		181.4,490.2 181.4,490.2 180.8,490.9 180.8,490.9 180.1,491.7 180.1,491.7 179.4,492.5 179.4,492.5 178.1,493.7 178.1,493.7 
		176.6,494.9 176.6,494.9 175.1,496.5 175.1,496.5 173.6,497.7 173.6,497.7 172.1,498.7 172.1,498.7 169.6,500.7 169.6,500.7 
		167.4,502.5 167.4,502.5 165.4,503.5 164.6,503.7 163.8,503.9 163.8,503.9 162.8,503.7 162.8,503.7 162.4,503.5 162.1,502.9 
		162.1,502.9 162.4,501.9 163.1,501.2 163.1,501.2 164.1,500.5 165.8,499.7 165.8,499.7 167.4,499.2 168.4,498.5 168.4,498.5 
		169.1,497.5 169.4,496.5 169.4,496.5 169.1,495.7 168.1,493.9 168.1,493.9 167.1,492.5 167.1,492.5 166.1,490.9 166.1,490.9 
		165.6,489.7 165.6,488.2 165.6,488.2 165.6,486.9 165.8,485.7 165.8,485.7 166.6,484.2 166.6,484.2 167.6,482.9 167.6,482.9 
		168.8,481.9 168.8,481.9 169.4,481.7 169.8,481.5 169.8,481.5 170.6,481.7 171.1,481.9 171.4,482.7 171.4,483.5 171.4,483.5 
		171.4,484.2 170.8,484.9 170.8,484.9 170.4,485.5 170.4,485.5 169.6,486.2 169.6,486.2 168.6,486.9 168.6,486.9 168.1,487.5 
		168.1,487.5 168.4,488.5 168.8,489.7 168.8,489.7 169.6,490.9 169.6,490.9 170.4,492.5 170.4,492.5 171.4,493.9 171.4,493.9 
		171.8,494.9 171.8,494.9 172.1,495.2 172.1,495.2 172.8,494.7 172.8,494.7 174.4,493.7 174.4,493.7 176.4,492.2 176.4,492.2 
		178.4,490.5 178.4,490.5 180.1,488.9 180.1,488.9 181.4,487.5 181.4,487.5 182.4,486.7 182.4,486.7 182.6,486.2 182.6,486.2 
		182.8,486.5 182.8,486.5 183.1,486.7 183.1,486.7 183.4,486.9 183.4,486.9 	"/>
	<path class="st0" d="M202.4,487.9L202.4,487.9l-0.5,1l0,0l-2,2.8l0,0l-2.5,2.5l0,0l-2.8,2.2l0,0l-3,2l0,0l-1.5,0.5l-1.2,0.5l0,0
		l-1.5,0.5h-1.5l0,0l-1.3-0.2l-1.2-0.2l-1-0.5l-1-0.8l0,0l-0.5-1l-0.5-1l-0.5-1.5v-1.5l0,0l0.2-2.8l0.8-2.8l0,0l0.5-1.5l0.5-1.2
		l2-2.5l0,0l0.8-0.8l0,0l1-0.8l0,0l1.2-0.5l0,0l1.2-0.2l0,0h0.2l0,0l0.5,0.2l0,0l0.8,0.2l0,0l0.2,0.2l0,0l1,1.2l0,0l0.2,1.2l0,0
		l-0.2,1.8l0,0l-0.8,1.5l0,0l-1.2,1.8l0,0l-2.2,2l0,0l-1.8,1.5l0,0l-2.2,1.5l0,0l0.2,1.8l0.2,0.5l0.5,0.5l0,0l1.2,0.8l1.8,0.2l0,0
		l2-0.2l0,0l2.2-0.8l0,0l1.8-1l0,0l2-1.2l0,0l2.8-2.2l0,0l2.5-2.2l1-1l0,0l0.8-0.8h0.5l0,0l0,0L202.4,487.9L202.4,487.9L202.4,487.9
		z M188.4,484.5L188.4,484.5v-0.8l0,0l-0.2-0.2l0,0L188,483l0,0h-0.5l0,0l-0.8,0.2l-1,1l0,0l-1,1.2l-1,1.5l0,0l-0.2,1l0,0l-0.2,1
		l0,0l-0.2,1l0,0l-0.2,1l0,0l1.8-1.5l0,0l1.5-1l0,0l1-1l0,0l0.8-1l0,0l0.5-1l0,0L188.4,484.5L188.4,484.5L188.4,484.5z"/>
	<path class="st0" d="M228.4,487.9L228.4,487.9l-0.2,1l0,0l-0.8,1l-1.2,1.2l0,0l-1.5,1.8l0,0l-1.5,1.5l0,0l-1.8,1.5l0,0l-1.5,1.2
		l0,0l-1.5,0.8l-1,0.2l0,0l-1-0.2l0,0l-1-0.8l-0.8-1.2l0,0l-0.5-1.2l-0.5-1.5l0,0l-0.5-3.5l0,0l-1,2l-1.5,2l-1.5,1.8l-1.8,1.8l0,0
		l-1.7,1.4l-2,1l-1.8,0.5l-2,0.2l0,0h-0.5l-0.5-0.2l-0.8-0.8l0,0l-0.2-1.2l-0.2-1.2l0,0v-1.3l0.2-1l0,0l0.8-2.2l1-2.2l0,0l1.2-2
		l1.2-2l0,0l2-2.5l0,0l1.2-1l1-0.8l0,0l1.8-0.5l2-0.2l0,0l0.8,0.2l0.8,0.8l0,0l0.5,1l0.5,1.2l0,0l0.2,2l0,0l0.5-1.8l0,0l0.2-2l0,0
		l0.5-2l0,0l0.2-2.5l0,0v-0.8l0,0v-1.2l0,0l0.2-2.2l0,0l0.2-1.2l0,0l0.8-0.5l0.8-0.2l0,0l1.2,0.2l0,0l0.2,0.2l0.2,0.2l0,0v0.8l0,0
		l-0.2,1.2l0,0l-0.5,2l0,0l-0.5,2.8l0,0l-0.2,0.8l0,0v1l0,0l-0.2,1.2l0,0L216,483l0,0l-0.2,2.8l0,0l-0.2,2.8l0,0l0.2,2.5l0,0
		l0.2,2.8l0,0l0.2,1l0.2,0.5l0,0l0.8-0.2l1-0.2l2-1l0,0l2-1.5l2-1.8l0,0l3.2-3.2l0,0l0.2-0.2l0,0l0.2,0.2v0.2l0,0L228.4,487.9
		L228.4,487.9L228.4,487.9z M211.4,489.2L211.4,489.2l-0.5-0.2l-0.3-0.3l0,0l-0.2-1l0,0l0.2-1l0,0v-1l0,0l-0.2-0.8l0,0l-0.5-0.8l0,0
		l-0.5-0.8l0,0l-0.8-0.2l0,0l-0.5,0.2l-0.5,0.4l-1.5,1.5l0,0l-1.5,2l0,0l-1.2,2l0,0l-1.2,1.8l0,0l-0.8,1.5l0,0l-0.8,2l-0.2,1.8l0,0
		v0.8l0.2,0.5l0.5,0.2h0.5l0,0l1.2-0.2l1.5-0.8l0,0l1.5-1.2l1.2-1l0,0l1.8-2l0,0l1-1l0,0l0.8-1l0,0L211.4,489.2L211.4,489.2
		L211.4,489.2z"/>
	<path class="st0" d="M252.6,488.2L252.6,488.2v0.5l0,0v0.5l0,0l-0.2,0.8l0,0l-0.2,0.2l0,0l-0.6,0.5l0,0l-0.2,0.5l0,0l-0.8,0.5l0,0
		l-0.5,0.8l0,0l-2.2,2l0,0l-2.2,1.8l0,0l-1,0.5l-1.2,0.8l0,0l-1.5,0.2h-1.4l0,0l-1.5-0.2l0,0l-1.2-0.8l0,0l-1-1l0,0l-0.5-1.2l0,0
		l-1.2,1l0,0l-1,1.2l0,0l-1.5,1l0,0l-1.2,1.2l0,0l-1,0.5l0,0l-1.2,0.5l0,0l-1,0.2l0,0l-1.2,0.2l0,0h-0.8l-0.5-0.5l0,0l-1-1l0,0
		l-0.5-1.5l0,0v-1.5l0,0v-1l0.2-1.2l0,0l1-2.5l0,0l1.2-2.2l0,0l1.2-2l0,0l1.5-1.8l0,0l2-1.5l0,0l2-1l0,0l1-0.2l0.8-0.2l0,0h0.8l0,0
		h1l0,0l0.8,0.2l0,0l0.8,0.2l0,0l0.5,0.5l0,0l0.2,0.8l0,0l0.2,0.8l0,0l0.2,0.5l0,0l-0.2,1.5l0,0l-0.5,2.5l0,0l-0.2,2l0,0l0.2,1.2
		l0,0l0.5,1.2l0,0l0.8,0.8l0,0l0.8,0.2h0.5l0,0h1.2l1-0.2l0,0l1.2-0.8l1.2-0.5l0,0l2.2-2l0,0l2.2-2.2l0,0l0.5-0.2l0,0l0.5-0.8l0,0
		l0.5-0.2l0,0l0.2-0.2l0,0h0.2L252.6,488.2L252.6,488.2L252.6,488.2z M236.6,486.7L236.6,486.7v-0.8l0,0l-0.2-0.8l0,0l-0.2-0.2H236
		l0,0h-0.5l0,0h-1.2l0,0l-1.2,0.8l0,0l-1,0.8l0,0l-1,1l0,0l-1,1l0,0l-1,1.2l0,0l-0.8,1.5l0,0l-0.8,1.8l0,0l-0.5,1.5l0,0l-0.4,1.2
		l0,0l0.2,0.5l0,0v0.5l0,0l0.2,0.5l0,0l0.5,0.2l0,0h1l1-0.5l0,0l1.8-0.8l1.5-1.2l0,0l1.2-1.2l1-1.5l0,0l0.8-1.5l0.2-1.2l0.5-1.5
		L236.6,486.7L236.6,486.7L236.6,486.7z"/>
	<polygon class="st0" points="281.4,487.5 281.4,487.5 281.4,488.2 281.4,488.2 280.8,488.9 280.8,488.9 280.6,489.7 280.6,489.7 
		280.1,490.2 280.1,490.2 278.8,491.9 278.8,491.9 277.4,493.5 277.4,493.5 275.8,494.9 275.8,494.9 274.1,496.2 274.1,496.2 
		272.8,497.2 272.8,497.2 271.6,497.7 271.6,497.7 270.4,498.2 270.4,498.2 269.1,498.5 269.1,498.5 267.6,498.2 266.6,497.7 
		266.6,497.7 265.6,496.7 265.6,496.7 265.1,495.2 265.1,495.2 264.6,493.7 264.6,493.7 264.4,491.9 264.4,491.9 264.1,490.2 
		264.1,490.2 263.6,488.9 263.6,488.9 263.1,487.9 263.1,487.9 262.8,487.7 262.6,487.7 262.6,487.7 261.8,487.7 261.8,487.7 
		261.1,487.9 261.1,487.9 260.4,488.7 260.4,488.7 259.6,489.7 259.6,489.7 258.4,491.5 258.4,491.5 256.6,493.7 256.6,493.7 
		255.6,494.9 255.6,494.9 254.4,496.5 254.4,496.5 253.1,497.7 253.1,497.7 252.1,498.2 252.1,498.2 251.4,497.9 250.8,497.2 
		250.6,495.9 250.4,494.5 250.4,494.5 250.6,491.5 250.6,491.5 250.8,489.5 250.8,489.5 251.4,487.7 251.4,487.7 251.8,485.7 
		251.8,485.7 252.4,483.9 252.4,483.9 252.8,483.5 252.8,483.5 253.1,483.2 253.1,483.2 253.6,482.9 253.6,482.9 254.1,482.9 
		254.1,482.9 254.4,483.2 254.6,483.5 254.6,483.5 254.8,484.5 254.8,484.5 254.8,485.2 254.8,485.2 254.6,486.2 254.6,486.2 
		254.4,486.9 254.4,486.9 254.1,487.9 254.1,487.9 253.8,489.2 253.8,489.2 253.6,490.5 253.6,490.5 253.4,491.5 253.4,491.5 
		253.4,492.7 253.4,492.7 253.4,493.2 253.4,493.2 254.1,492.9 255.1,491.7 255.1,491.7 256.4,490.2 256.4,490.2 257.8,488.2 
		257.8,488.2 259.1,486.7 259.1,486.7 260.4,485.5 260.4,485.5 261.8,484.7 261.8,484.7 262.6,484.5 263.4,484.5 263.4,484.5 
		264.4,484.5 264.8,484.7 264.8,484.7 265.6,485.2 265.8,485.9 265.8,485.9 266.6,487.7 266.6,487.7 266.8,489.7 266.8,489.7 
		267.1,491.7 267.1,491.7 267.6,493.7 267.6,493.7 267.8,494.2 268.4,494.9 268.4,494.9 268.8,495.2 269.8,495.5 269.8,495.5 
		270.6,495.2 271.6,494.9 271.6,494.9 273.4,493.9 273.4,493.9 275.4,492.5 275.4,492.5 277.4,490.5 277.4,490.5 278.4,489.5 
		278.4,489.5 279.1,488.5 279.1,488.5 280.1,487.5 280.1,487.5 280.8,486.9 280.8,486.9 281.1,487.2 281.1,487.2 	"/>
	<polygon class="st0" points="315.1,495.2 315.1,495.2 315.1,495.7 314.8,495.9 314.8,495.9 313.8,496.5 312.8,496.7 312.8,496.7 
		310.4,497.2 310.4,497.2 307.8,497.5 307.8,497.5 305.4,498.2 305.4,498.2 305.6,498.7 305.6,498.7 305.6,499.2 305.6,499.2 
		305.4,499.7 304.8,499.9 304.1,500.2 303.1,500.2 303.1,500.2 302.8,499.9 302.8,499.9 302.4,499.5 302.4,499.5 302.1,499.2 
		302.1,499.2 301.8,498.9 301.8,498.9 299.8,499.5 299.8,499.5 298.4,499.9 298.4,499.9 297.6,500.2 297.6,500.2 295.8,500.7 
		294.6,500.9 294.6,500.9 293.8,500.7 293.4,500.5 293.4,500.5 292.8,499.9 292.6,499.2 292.6,499.2 292.8,498.7 293.1,498.5 
		294.1,497.9 294.1,497.9 297.4,497.2 297.4,497.2 299.6,496.7 299.6,496.7 301.8,495.9 301.8,495.9 301.8,493.9 301.8,493.9 
		302.1,492.2 302.1,492.2 302.4,490.5 302.4,490.5 302.6,487.9 302.6,487.9 303.1,483.7 303.1,483.7 303.4,481.9 303.4,481.9 
		303.6,480.5 303.6,480.5 302.4,480.7 300.8,481.7 300.8,481.7 299.6,482.5 299.6,482.5 298.6,482.7 298.6,482.7 296.6,483.5 
		296.6,483.5 294.8,483.7 294.8,483.7 294.4,483.7 294.4,483.5 294.4,483.5 294.1,482.7 294.1,482.7 294.1,481.9 294.6,481.5 
		294.6,481.5 296.6,480.7 296.6,480.7 297.6,480.2 297.6,480.2 298.1,479.9 298.1,479.9 299.6,479.2 299.6,479.2 300.8,478.5 
		300.8,478.5 302.4,477.7 302.4,477.7 304.6,476.5 304.6,476.5 306.4,475.5 306.4,475.5 306.8,475.7 307.4,476.2 307.4,476.2 
		307.6,476.9 307.6,477.7 307.6,477.7 307.6,478.2 307.1,478.7 307.1,478.7 306.4,482.5 306.4,482.5 305.6,486.5 305.6,486.5 
		305.1,489.9 304.8,492.7 304.8,492.7 304.8,493.2 304.8,493.2 304.8,493.5 304.8,493.5 304.8,493.9 304.8,493.9 304.8,494.5 
		304.8,494.5 304.8,494.9 304.8,494.9 305.1,495.5 305.1,495.5 306.6,495.2 308.8,494.7 308.8,494.7 311.1,494.2 311.1,494.2 
		312.4,493.9 312.4,493.9 313.6,493.7 313.6,493.7 314.8,493.7 314.8,493.7 315.1,494.5 	"/>
	<path class="st0" d="M340.8,480.5L340.8,480.5v0.8l-0.5,0.8l0,0l-1,2.5l0,0l-0.5,2l0,0l-1,2.8l0,0l-1,4.2l0,0l-0.2,1l0,0l-0.2,1
		l0,0l-0.2,1l0,0v1.2l0,0v1.2l-0.2,0.8l-0.5,0.5l-0.5,0.2l0,0l-0.8-0.2l-0.6-0.6l0,0l-0.5-1l0,0l-0.2-1.2l0,0l0.5-2.2l0,0l0.5-1.8
		l0,0l0.5-1.8l0,0l0.5-1.8l0,0l0.2-1.2l-0.2-0.2l0,0l-1.5,0.8l0,0l-1.5,0.8l0,0l-1.3,0.6l-1,0.2l0,0l-3.5,0.5l0,0l-0.8-0.2l-0.8-0.8
		l0,0l-1-0.8l-0.8-1l0,0l-0.5-1l-0.2-0.8l0,0l0.2-1.8l0.8-1.8l0,0l1-1.5l1.2-1l0,0l1.5-1.2l0,0l1.8-1.5l0,0l2-0.8l0,0l1.2-0.5l0,0
		l1.2-0.2l0,0l2-0.2l0,0h1.5l0,0l1,0.5l0,0l0.8,0.8l0,0l1.2,1l0,0l0.5,0.5l0,0l0.5,0.2l0,0L340.8,480.5L340.8,480.5L340.8,480.5z
		 M337.6,480.9L337.6,480.9l-0.2-0.8l-0.8-0.4l0,0l-1-0.2l-1-0.2l0,0l-1.8,0.2l-1.2,0.2l0,0l-1.2,0.8l-1.5,0.8l0,0l-1.2,1.2l0,0
		l-1.2,1.2l0,0l-0.8,1.2l-0.5,1.5l0,0l0.2,1l0.5,0.8l0,0l1,0.5h1l0,0h1.5l2-0.8l0,0l1.8-1l1.8-1l0,0l1.2-1.2l0,0l0.5-1.2l0,0
		l0.5-1.2l0,0L337.6,480.9L337.6,480.9L337.6,480.9z"/>
	<path class="st0" d="M368.1,480.5L368.1,480.5l-0.2,0.8l-0.2,0.8l0,0l-1,2.5l0,0l-0.8,2l0,0l-0.8,2.8l0,0l-1.2,4.2l0,0l-0.2,1l0,0
		l-0.2,1l0,0v1l0,0l-0.2,1.2l0,0v1.2l-0.2,0.8l-0.2,0.5l-0.8,0.2l0,0l-0.8-0.2l-0.7-0.6l0,0l-0.5-1l0,0v-1.2l0,0l0.5-2.2l0,0
		l0.5-1.8l0,0l0.5-1.8l0,0l0.5-1.8l0,0l0.2-1.2l-0.2-0.2l0,0l-1.5,0.8l0,0l-1.5,0.8l0,0l-1.5,0.6l-1,0.2l0,0l-3.2,0.5l0,0l-0.8-0.2
		l-1-0.8l0,0l-0.8-0.8l-1-1l0,0l-0.5-1v-0.8l0,0l0.2-1.8l0.5-1.8l0,0l1-1.5l1.2-1l0,0l1.5-1.2l0,0l2-1.5l0,0l1.8-0.8l0,0l1.5-0.5
		l0,0l1.2-0.2l0,0l2-0.2l0,0h1.2l0,0l1,0.5l0,0l1,0.8l0,0l1,1l0,0l0.8,0.5l0,0l0.2,0.2l0,0L368.1,480.5L368.1,480.5L368.1,480.5z
		 M364.8,480.9L364.8,480.9l-0.5-0.8l-0.7-0.4l0,0l-1-0.2l-1-0.2l0,0l-1.5,0.2l-1.5,0.2l0,0l-1.2,0.8l-1.2,0.8l0,0l-1.2,1.2l0,0
		l-1.4,1.2l0,0l-1,1.2l-0.2,1.5l0,0l0.2,1l0.5,0.8l0,0l0.8,0.5h1.2l0,0h1.5l1.8-0.8l0,0l3.5-2l0,0l1.5-1.2l0,0l0.5-1.2l0,0l0.5-1.2
		l0,0L364.8,480.9L364.8,480.9L364.8,480.9z"/>
	<path class="st0" d="M396.4,491.9L396.4,491.9v0.8l-0.2,1l0,0l-1,1.5l0,0l-1.5,1.2l0,0l-1.5,1.2l0,0l-1.8,1l0,0l-1.5,0.8l0,0
		l-1,0.5l-1.5,0.2l-1.8,0.2h-2l0,0l-1.5-0.2l-1.2-0.2l0,0l-1.5-0.5l-1-0.8l0,0l-1.2-1l-0.8-1l0,0l-0.5-1.2l-0.5-1.2l0,0l0.2-2.8l0,0
		l0.8-2.2l0,0l1-2.2l0,0l1.2-2.2l0,0l1.5-1.8l0,0l1.5-1.8l0,0l1.5-1.5l0,0l1.8-1.5l0,0l1-0.8l0,0l1-0.8l0,0l1-0.2l0,0l1-0.2l0,0
		l0.8,0.2l0,0l0.5,0.2l0,0l0.5,0.5l0,0v0.5l0,0l-0.2,1v0.2L389,479l0,0h-0.8l0,0l-1,0.5l0,0l-0.8,0.5l0,0l-1,0.8l0,0l-2.8,2.5l0,0
		l-2.5,3.2l0,0l-1.2,1.5l-0.8,1.8l0,0l-0.5,1.9l-0.2,1.8l0,0l0.2,1.2l0,0l0.5,0.8l0,0l1,1l0,0l1,0.5l0,0v-0.3l0,0v-0.5l0,0l0.2-2.2
		l0.5-1.5l0,0l1-2l0,0l1.2-1.2l0,0l1.5-1l0,0l2-0.8l0,0l0.8-0.2l0,0h1l0,0l1-0.2l0,0h1l0,0h1l1.2,0.5l0,0l1,0.2l0.8,0.8l0,0l1,0.8
		l0.5,0.8l0,0l0.5,1L396.4,491.9L396.4,491.9L396.4,491.9z M393.6,491.9L393.6,491.9l-0.2-0.8l0,0l-1-0.8l0,0l-1.2-0.5l0,0l-2-0.2
		l0,0l-1.5,0.2l-1.5,0.2l0,0l-1,0.8l-1,0.8l0,0l-0.8,1.2l-0.5,1.2l0,0l-0.5,1.5v1.5l0,0l0.5,0.2l0,0h0.8l0,0h0.5l0,0h0.8l0,0l2-0.2
		l0,0l2-0.8l0,0l1.8-1l0,0l1.5-1.2l0,0l1.2-1.2l0,0l0.2-0.5L393.6,491.9L393.6,491.9L393.6,491.9z"/>
</g>
</svg>
